<svg width="210" height="89" viewBox="0 0 210 89" fill="none" xmlns="http://www.w3.org/2000/svg">
<g clip-path="url(#clip0_1_225)">
<g clip-path="url(#clip1_1_225)">
<g clip-path="url(#clip2_1_225)">
<path d="M29.9854 17.8864C31.7588 17.6136 33.4189 17.8594 34.9657 18.6237C36.5126 19.3879 37.7597 20.5803 38.7071 22.2006C39.399 23.4414 39.8801 24.7803 40.1504 26.2173C40.4287 27.653 40.5668 29.0857 40.5649 30.5153C40.563 31.9449 40.4864 33.2628 40.3351 34.4689C39.8416 38.6848 38.7988 42.6402 37.2067 46.335C35.6214 50.0207 33.5953 53.1908 31.1286 55.8455C30.7211 56.2943 30.2483 56.7449 29.71 57.1973C29.1798 57.6485 28.5958 58.0176 27.9581 58.3046C27.3193 58.5835 26.6458 58.6912 25.9378 58.6276C24.973 58.4967 24.141 57.9469 23.4417 56.9784C22.6387 55.763 22.39 54.4664 22.6956 53.0887C22.7444 52.9251 22.8367 52.8041 22.9725 52.7257C23.1151 52.6381 23.2716 52.614 23.4419 52.6535C23.6123 52.6931 23.7373 52.7847 23.8169 52.9285C23.9045 53.0711 23.9286 53.2276 23.8891 53.398C23.6668 54.4097 23.8557 55.3705 24.4556 56.2803C24.9358 56.9458 25.4737 57.3189 26.0694 57.3998C27.2341 57.5493 28.623 56.7525 30.236 55.0094C32.6096 52.443 34.5616 49.3786 36.092 45.8165C37.6211 42.2463 38.6303 38.4193 39.1194 34.3355C39.254 33.1812 39.3244 31.93 39.3307 30.5819C39.3369 29.2338 39.2123 27.8894 38.9569 26.5487C38.7082 25.1987 38.2706 23.9558 37.6441 22.82C36.8115 21.412 35.7286 20.3792 34.3953 19.7218C33.0621 19.0643 31.6263 18.8621 30.0881 19.115C27.6968 19.4828 24.99 21.0573 21.9677 23.8385C17.4262 28.0116 13.5313 33.1572 10.2829 39.2754C7.04249 45.3923 4.66749 52.0621 3.15787 59.2846C2.87262 60.6346 2.61791 62.2098 2.39374 64.0104C2.16957 65.8109 2.06298 67.7084 2.07398 69.7028C2.08621 71.7052 2.29103 73.678 2.68844 75.6212C3.09511 77.5711 3.78666 79.3705 4.76308 81.0193C5.79382 82.7008 7.00853 83.9761 8.40721 84.8453C9.81514 85.7213 11.316 86.2667 12.9098 86.4816C14.5128 86.7033 16.1257 86.6688 17.7485 86.3782C19.3726 86.0956 20.9241 85.6352 22.4031 84.997C29.1734 82.124 34.6298 75.6745 38.7722 65.6485C38.8463 65.4892 38.9565 65.3778 39.1028 65.3142C39.2584 65.2575 39.4192 65.2615 39.5852 65.3263C39.7432 65.3924 39.85 65.4992 39.9055 65.6467C39.9704 65.801 39.9744 65.9606 39.9176 66.1254C35.6418 76.4594 29.9678 83.1231 22.8956 86.1164C21.203 86.8614 19.4419 87.3745 17.6123 87.6559C15.8815 87.9385 14.1615 87.9443 12.4523 87.6732C10.7443 87.4102 9.13825 86.7947 7.63403 85.8267C6.13906 84.8655 4.82899 83.4775 3.70382 81.6627C2.68049 79.9226 1.95068 78.0346 1.51438 75.9989C1.08611 73.9619 0.864322 71.9054 0.849007 69.8296C0.833693 67.7537 0.937813 65.7868 1.16137 63.9288C1.39171 62.0616 1.65445 60.4317 1.94959 59.0392C3.48885 51.6889 5.91138 44.9009 9.21719 38.6754C12.5218 32.4418 16.4914 27.1943 21.1261 22.933C21.823 22.2836 22.6236 21.6142 23.528 20.9248C24.4391 20.2261 25.4274 19.6018 26.4928 19.0519C27.565 18.4927 28.6971 18.1091 29.8891 17.9012C29.9212 17.8962 29.9533 17.8913 29.9854 17.8864Z" fill="#56504E"/>
<path d="M51.891 54.8092C51.97 54.682 52.0771 54.604 52.2123 54.5749C52.3463 54.5379 52.4768 54.5589 52.604 54.6379C52.7311 54.717 52.8092 54.824 52.8382 54.9592C52.8672 55.0944 52.8462 55.225 52.7752 55.3509C52.0943 56.4249 51.3094 57.3301 50.4205 58.0664C49.5396 58.8015 48.6563 59.307 47.7705 59.5829C46.8915 59.8495 46.123 59.8198 45.465 59.4939C45.2792 59.4074 45.0934 59.2676 44.9076 59.0744C44.7206 58.8732 44.5725 58.6043 44.4632 58.2679C44.1447 58.7605 43.7972 59.2247 43.4206 59.6604C43.1193 60.0518 42.7283 60.3665 42.2474 60.6048C42.1079 60.6591 41.97 60.6967 41.8335 60.7177C41.344 60.793 40.9058 60.6674 40.5188 60.3408C40.0361 59.8729 39.855 59.1491 39.9754 58.1695C40.1255 57.1689 40.4743 56.2323 41.0218 55.3595C41.5682 54.4787 42.1423 53.8318 42.7441 53.4189C43.3768 52.993 43.9651 52.8122 44.5089 52.8764C45.0805 52.961 45.5141 53.2434 45.8098 53.7237C45.932 53.7706 46.0224 53.8512 46.081 53.9654C46.1384 54.0715 46.1529 54.1925 46.1245 54.3283C45.9597 55.019 45.7417 55.685 45.4707 56.3264C45.2262 57.514 45.383 58.2661 45.941 58.5828C46.6193 58.881 47.5428 58.6897 48.7113 58.0089C49.8878 57.3269 50.9477 56.2603 51.891 54.8092ZM44.4754 56.0235C44.5736 55.5402 44.744 54.9924 44.9866 54.3801C44.9335 54.2486 44.8514 54.1421 44.7403 54.0607C44.628 53.9711 44.5092 53.9196 44.3839 53.906C44.3092 53.9011 44.2277 53.9054 44.1394 53.919C43.9067 53.9547 43.6336 54.0748 43.32 54.2791C42.815 54.6278 42.3329 55.1784 41.8736 55.9308C41.4143 56.6832 41.1254 57.4752 41.0069 58.3066C40.9309 58.9344 41.0043 59.3584 41.2271 59.5788C41.3222 59.6628 41.4237 59.7088 41.5318 59.7168C41.6466 59.7156 41.7497 59.6915 41.841 59.6446C42.1311 59.5014 42.3969 59.2798 42.6383 58.9798C43.3914 58.1083 44.0038 57.1229 44.4754 56.0235Z" fill="#56504E"/>
<path d="M68.2527 51.9969C68.3398 51.8685 68.4515 51.7939 68.5879 51.7729C68.7231 51.7439 68.8537 51.7649 68.9796 51.8359C69.0999 51.9241 69.1706 52.0365 69.1916 52.1729C69.2206 52.3081 69.1996 52.4386 69.1286 52.5646C68.802 53.0583 68.3634 53.6515 67.8128 54.3441C67.2622 55.0366 66.6671 55.6538 66.0276 56.1958C65.3948 56.7284 64.8504 57.0339 64.3942 57.1123C64.2257 57.1382 64.085 57.1311 63.972 57.091C63.8578 57.0428 63.7671 56.987 63.6998 56.9234C63.3134 56.5474 63.1807 56.0052 63.3018 55.2966C63.4296 54.5787 63.645 53.7898 63.9482 52.93C64.2068 52.2084 64.3828 51.5899 64.476 51.0745C64.5001 50.964 64.5112 50.8761 64.5094 50.8106C63.8081 51.2717 63.1057 51.8315 62.4019 52.4901C61.7062 53.1474 61.0183 53.8283 60.338 54.5325C59.475 55.4374 58.5926 56.2959 57.6907 57.1082C57.2561 57.4872 56.8626 57.6258 56.5102 57.5239C56.425 57.5041 56.3262 57.4495 56.2139 57.36C56.1015 57.2705 56.0133 57.1239 55.9491 56.9202C55.8824 56.7004 55.8803 56.3927 55.9427 55.997C56.052 55.3724 56.2005 54.7622 56.3881 54.1666C56.5703 53.5882 56.7089 53.0206 56.804 52.4639C56.8095 52.4466 56.8111 52.4299 56.8086 52.4139C56.1543 52.8595 55.5126 53.4675 54.8835 54.2378C54.2545 55.0081 53.6403 55.8213 53.0409 56.6774L51.2621 59.1319C51.1658 59.2535 51.0534 59.3241 50.925 59.3439C50.8207 59.3599 50.7201 59.3467 50.6232 59.3041C50.5078 59.2479 50.4254 59.1661 50.376 59.0587C50.3254 58.9432 50.3149 58.8216 50.3445 58.6939C50.8662 56.9051 51.9194 54.6731 53.5041 51.9979C53.5831 51.8708 53.6902 51.7927 53.8254 51.7637C53.9593 51.7267 54.0893 51.7437 54.2152 51.8147C54.3423 51.8937 54.4204 52.0008 54.4494 52.136C54.4864 52.2699 54.4695 52.3998 54.3985 52.5258C53.9484 53.285 53.5299 54.0352 53.1428 54.7765C53.6657 54.0636 54.2058 53.4097 54.7633 52.8147C55.3194 52.2116 55.8994 51.7364 56.5031 51.3889C56.792 51.2377 57.0707 51.2071 57.3392 51.2973C57.5676 51.3936 57.725 51.5624 57.8114 51.8037C57.8774 52.0729 57.886 52.3426 57.8373 52.613C57.7212 53.2469 57.5699 53.8657 57.3835 54.4694C57.2001 55.0397 57.0603 55.5993 56.9639 56.148C56.9534 56.24 56.9451 56.3193 56.9389 56.386C56.9605 56.3662 56.9821 56.3465 57.0037 56.3267C57.8772 55.5435 58.738 54.7046 59.5862 53.8103C60.2949 53.077 61.0119 52.3712 61.7372 51.6929C62.4613 51.0065 63.2042 50.4158 63.9659 49.9208C64.3561 49.6801 64.6993 49.615 64.9955 49.7255C65.0727 49.7465 65.1594 49.803 65.2557 49.895C65.3588 49.9777 65.4412 50.1129 65.5029 50.3005C65.5696 50.6271 65.5683 50.9394 65.4991 51.2375C65.3929 51.8289 65.2049 52.5026 64.9352 53.2587C64.8382 53.5365 64.7327 53.8649 64.6184 54.2439C64.5042 54.6229 64.4122 54.9861 64.3425 55.3336C64.2795 55.6719 64.2764 55.9188 64.3332 56.0744C64.7727 55.9411 65.3569 55.4939 66.086 54.7328C66.8218 53.9625 67.544 53.0506 68.2527 51.9969Z" fill="#56504E"/>
<path d="M70.7682 55.2943C71.6954 55.2339 72.691 54.8713 73.7552 54.2065C74.8182 53.5338 75.6429 52.8607 76.2293 52.1873C76.3269 52.0737 76.4451 52.0145 76.584 52.0095C76.7216 51.9966 76.8466 52.0349 76.959 52.1244C77.0725 52.2219 77.1318 52.3401 77.1367 52.479C77.1497 52.6166 77.1114 52.7416 77.0219 52.854C76.6466 53.2978 76.1435 53.7653 75.5126 54.2566C74.8885 54.7387 74.2076 55.172 73.47 55.5565C72.7323 55.941 72.0184 56.1863 71.3283 56.2924C71.1438 56.3208 70.9654 56.3359 70.7932 56.3378C70.0228 56.3495 69.4151 56.1102 68.9701 55.6201C68.1763 54.7318 68.2413 53.0174 69.1648 50.4767C69.2173 50.3372 69.3053 50.2416 69.4287 50.1897C69.559 50.1286 69.6932 50.1203 69.8315 50.1648C69.963 50.2185 70.0593 50.3104 70.1204 50.4407C70.1802 50.5629 70.1839 50.6938 70.1314 50.8333C69.795 51.7968 69.5885 52.5638 69.5119 53.1341C69.4353 53.7045 69.4307 54.1282 69.4979 54.4054C69.572 54.6733 69.6519 54.8458 69.7377 54.9229C69.9667 55.1834 70.3102 55.3072 70.7682 55.2943ZM70.2659 48.1019C70.4103 48.0797 70.5427 48.1127 70.6631 48.201C70.7834 48.2892 70.8547 48.4056 70.8769 48.55C70.8991 48.6945 70.8661 48.8269 70.7778 48.9473C70.6896 49.0676 70.5732 49.1389 70.4288 49.1611C70.2843 49.1833 70.1519 49.1503 70.0315 49.062C69.9112 48.9737 69.8399 48.8574 69.8177 48.7129C69.7955 48.5685 69.8285 48.4361 69.9168 48.3157C70.0051 48.1954 70.1214 48.1241 70.2659 48.1019Z" fill="#56504E"/>
<path d="M85.6736 50.464C85.3501 51.0312 84.856 51.6905 84.1911 52.4416C83.5331 53.1835 82.7911 53.8603 81.9652 54.472C81.138 55.0756 80.3142 55.4611 79.4939 55.6283C79.4698 55.632 79.4457 55.6357 79.4217 55.6394C78.6673 55.7554 78.022 55.5918 77.4856 55.1486C76.2086 54.0553 75.9282 51.6177 76.6444 47.8358C77.0655 45.6599 77.727 43.365 78.629 40.9509C79.539 38.5356 80.5246 36.4249 81.5857 34.6188C82.6537 32.8035 83.6278 31.7132 84.5081 31.3478C84.9395 31.2157 85.2911 31.3383 85.5626 31.7154C85.962 32.3358 85.9718 33.6281 85.5921 35.5922C85.2123 37.5563 84.3526 39.8982 83.013 42.6178C81.6802 45.3281 79.7742 48.1307 77.2951 51.0255C77.25 52.7082 77.5363 53.8224 78.1542 54.3681C78.4461 54.6107 78.8322 54.691 79.3125 54.6089C79.9575 54.4768 80.6378 54.1463 81.3532 53.6174C82.0767 53.0872 82.7443 52.4875 83.356 51.8185C83.9746 51.1401 84.4462 50.5213 84.7709 49.9621C84.8499 49.8349 84.9564 49.7529 85.0903 49.7158C85.2243 49.6788 85.3542 49.6958 85.4801 49.7668C85.6061 49.8378 85.6875 49.9402 85.7246 50.0742C85.7616 50.2081 85.7446 50.3381 85.6736 50.464ZM77.6592 48.0247C77.5764 48.4482 77.5113 48.8525 77.4637 49.2376C79.562 46.5903 81.1735 44.063 82.2983 41.6557C83.4311 39.2472 84.1769 37.2063 84.5356 35.5329C84.8943 33.8595 84.9663 32.8052 84.7515 32.37C84.0892 32.7101 83.2879 33.6958 82.3477 35.3272C81.4063 36.9506 80.5028 38.9008 79.6373 41.1778C78.7717 43.4548 78.1124 45.7372 77.6592 48.0247Z" fill="#56504E"/>
<path d="M96.7401 47.9117C96.8191 47.7846 96.9262 47.7065 97.0614 47.6775C97.1954 47.6404 97.3259 47.6614 97.4531 47.7405C97.5802 47.8195 97.6583 47.9266 97.6873 48.0618C97.7163 48.1969 97.6953 48.3275 97.6243 48.4534C96.9434 49.5274 96.1585 50.4326 95.2696 51.1689C94.3887 51.9041 93.5054 52.4095 92.6196 52.6854C91.7406 52.952 90.9721 52.9224 90.3141 52.5964C90.1283 52.51 89.9425 52.3701 89.7567 52.1769C89.5697 51.9757 89.4216 51.7069 89.3124 51.3705C88.9938 51.863 88.6463 52.3272 88.2697 52.7629C87.9685 53.1543 87.5774 53.4691 87.0965 53.7073C86.957 53.7616 86.8191 53.7993 86.6827 53.8202C86.1932 53.8955 85.7549 53.7699 85.3679 53.4433C84.8852 52.9754 84.7041 52.2516 84.8245 51.2721C84.9746 50.2715 85.3234 49.3348 85.8709 48.462C86.4173 47.5812 86.9914 46.9343 87.5932 46.5214C88.226 46.0955 88.8142 45.9147 89.358 45.9789C89.9296 46.0635 90.3632 46.346 90.6589 46.8262C90.7811 46.8731 90.8715 46.9537 90.9301 47.0679C90.9875 47.1741 91.002 47.295 90.9736 47.4308C90.8088 48.1216 90.5909 48.7876 90.3198 49.4289C90.0753 50.6165 90.2321 51.3686 90.7901 51.6853C91.4684 51.9835 92.3919 51.7922 93.5604 51.1114C94.7369 50.4294 95.7969 49.3628 96.7401 47.9117ZM89.3245 49.1261C89.4227 48.6428 89.5931 48.0949 89.8357 47.4826C89.7826 47.3511 89.7005 47.2447 89.5894 47.1632C89.4771 47.0737 89.3583 47.0221 89.233 47.0085C89.1583 47.0036 89.0768 47.0079 88.9885 47.0215C88.7558 47.0573 88.4827 47.1773 88.1691 47.3816C87.6641 47.7303 87.182 48.2809 86.7227 49.0333C86.2635 49.7858 85.9745 50.5777 85.856 51.4091C85.78 52.0369 85.8534 52.461 86.0763 52.6813C86.1713 52.7653 86.2729 52.8113 86.3809 52.8193C86.4957 52.8181 86.5988 52.794 86.6901 52.7471C86.9802 52.6039 87.246 52.3823 87.4874 52.0824C88.2405 51.2108 88.8529 50.2254 89.3245 49.1261Z" fill="#56504E"/>
<path d="M145.973 2.0574C147.423 1.44824 148.724 1.17425 149.876 1.23543C151.027 1.2966 151.95 1.69262 152.646 2.42351C153.072 2.90006 153.369 3.41704 153.537 3.97444C153.712 4.52258 153.826 5.02257 153.879 5.47442C154.019 6.65217 154.038 7.81973 153.937 8.9771C153.844 10.1332 153.705 11.2635 153.522 12.3678C153.046 15.3078 152.503 18.1842 151.892 20.9971C151.289 23.8087 150.683 26.4647 150.074 28.9653C150.044 29.093 150.014 29.2168 149.983 29.3365C149.959 29.447 149.935 29.5575 149.911 29.668C150.279 29.6032 150.651 29.5418 151.029 29.4838C151.403 29.8863 151.433 30.2965 151.119 30.7143C150.615 30.8001 150.106 30.8825 149.592 30.9615C146.418 44.1325 142.922 57.2094 139.102 70.1922C139.002 70.4459 138.839 70.59 138.615 70.6245C138.526 70.6381 138.435 70.6315 138.34 70.605C138.177 70.5563 138.055 70.46 137.976 70.3162C137.896 70.1724 137.88 70.0145 137.928 69.8429C141.692 57.041 145.143 44.1479 148.28 31.1632C137.207 32.9237 126.172 34.8548 115.176 36.9566C113.663 39.5058 112.289 42.1115 111.056 44.7737C110.414 46.1539 109.775 47.6649 109.141 49.3068C108.514 50.9475 107.97 52.6739 107.51 54.4862C107.05 56.3065 106.762 58.1703 106.645 60.0777C106.592 60.8005 106.618 61.7491 106.725 62.9239C106.833 64.1066 107.136 65.3044 107.635 66.5173C108.142 67.729 108.96 68.7492 110.089 69.5776C111.746 70.6783 113.739 71.037 116.071 70.6538C118.148 70.2768 120.214 69.4704 122.266 68.2347C126.896 65.3869 130.757 61.6719 133.847 57.0895C136.937 52.507 138.995 47.4592 140.02 41.9458C139.964 41.9543 139.906 41.9551 139.848 41.9476C139.678 41.9162 139.543 41.8384 139.442 41.7143C139.348 41.581 139.312 41.4263 139.334 41.2504C139.392 40.8801 139.61 40.6452 139.989 40.5458C140.186 40.4909 140.38 40.498 140.572 40.5672C140.771 40.6351 140.932 40.7499 141.056 40.9116C141.207 41.1431 141.284 41.3777 141.287 41.6153C141.29 41.8449 141.273 42.0283 141.236 42.1653C140.18 47.8478 138.056 53.0536 134.865 57.783C131.674 62.5123 127.689 66.3493 122.909 69.2941C120.721 70.6081 118.512 71.4654 116.282 71.8658C113.621 72.2996 111.321 71.873 109.382 70.5859C107.983 69.6099 106.942 68.2092 106.259 66.3839C105.576 64.5586 105.295 62.4374 105.416 60.0202C105.538 58.0382 105.834 56.1117 106.302 54.2408C106.77 52.3699 107.326 50.5922 107.97 48.9077C108.623 47.222 109.28 45.6711 109.941 44.2551C111.039 41.8848 112.248 39.5508 113.571 37.2528L114.401 35.8436C116.627 32.158 118.907 28.7394 121.24 25.5878C123.581 22.4349 125.71 19.7253 127.629 17.4588C129.556 15.191 131.009 13.53 131.988 12.4758C136.459 7.68109 141.12 4.2083 145.973 2.0574ZM152.309 12.1723C152.484 11.1187 152.618 10.0424 152.712 8.9437C152.805 7.83694 152.783 6.73142 152.646 5.62712C152.511 4.53887 152.213 3.75091 151.752 3.26325C151.259 2.78052 150.672 2.51753 149.992 2.47428C149.32 2.4298 148.66 2.49427 148.013 2.66768C147.367 2.8411 146.851 3.01483 146.467 3.18888C141.769 5.27497 137.248 8.64808 132.905 13.3082C131.959 14.3162 130.572 15.9013 128.745 18.0634C126.916 20.2176 124.88 22.7896 122.637 25.7795C120.394 28.7694 118.188 32.0208 116.017 35.5335C126.848 33.4817 137.705 31.5944 148.587 29.8716C148.633 29.692 148.68 29.5124 148.726 29.3328C148.774 29.1118 148.827 28.8942 148.884 28.68C149.479 26.19 150.079 23.5472 150.684 20.7516C151.297 17.9548 151.839 15.0951 152.309 12.1723Z" fill="#56504E"/>
<path d="M169.41 36.4403C169.497 36.3119 169.609 36.2372 169.745 36.2163C169.88 36.1872 170.011 36.2082 170.137 36.2792C170.257 36.3675 170.328 36.4799 170.349 36.6163C170.378 36.7515 170.357 36.882 170.286 37.0079C169.959 37.5017 169.521 38.0948 168.97 38.7873C168.419 39.4799 167.824 40.0972 167.185 40.6391C166.552 41.1718 166.008 41.4773 165.551 41.5557C165.383 41.5816 165.242 41.5745 165.129 41.5344C165.015 41.4862 164.924 41.4303 164.857 41.3668C164.471 40.9908 164.338 40.4485 164.459 39.7399C164.587 39.0221 164.802 38.2332 165.105 37.3734C165.364 36.6518 165.54 36.0333 165.633 35.5179C165.657 35.4074 165.669 35.3194 165.667 35.254C164.965 35.7151 164.263 36.2749 163.559 36.9335C162.864 37.5908 162.176 38.2716 161.495 38.9759C160.632 39.8808 159.75 40.7393 158.848 41.5516C158.413 41.9306 158.02 42.0691 157.667 41.9673C157.582 41.9475 157.483 41.8929 157.371 41.8034C157.259 41.7139 157.171 41.5672 157.106 41.3635C157.04 41.1438 157.038 40.836 157.1 40.4403C157.209 39.8157 157.358 39.2056 157.545 38.6099C157.728 38.0316 157.866 37.464 157.961 36.9072C157.967 36.89 157.968 36.8733 157.966 36.8572C157.312 37.3029 156.67 37.9108 156.041 38.6812C155.412 39.4515 154.798 40.2647 154.198 41.1208L152.419 43.5753C152.323 43.6969 152.211 43.7675 152.082 43.7873C151.978 43.8033 151.877 43.79 151.78 43.7474C151.665 43.6913 151.583 43.6095 151.533 43.5021C151.483 43.3866 151.472 43.265 151.502 43.1373C152.023 41.3484 153.077 39.1164 154.661 36.4412C154.74 36.3141 154.847 36.2361 154.983 36.2071C155.117 36.1701 155.247 36.1869 155.372 36.2579C155.5 36.337 155.578 36.4441 155.607 36.5793C155.644 36.7133 155.627 36.8432 155.556 36.9691C155.106 37.7284 154.687 38.4786 154.3 39.2199C154.823 38.507 155.363 37.853 155.921 37.2579C156.477 36.6549 157.057 36.1797 157.66 35.8323C157.949 35.681 158.228 35.6505 158.496 35.7406C158.725 35.8369 158.882 36.0058 158.969 36.2471C159.035 36.5163 159.043 36.786 158.995 37.0564C158.878 37.6903 158.727 38.3091 158.541 38.9128C158.357 39.4831 158.218 40.0427 158.121 40.5914C158.111 40.6834 158.102 40.7627 158.096 40.8294C158.118 40.8096 158.139 40.7899 158.161 40.7701C159.034 39.9868 159.895 39.148 160.743 38.2537C161.452 37.5204 162.169 36.8146 162.894 36.1362C163.619 35.4499 164.361 34.8592 165.123 34.3642C165.513 34.1235 165.857 34.0583 166.153 34.1688C166.23 34.1898 166.317 34.2464 166.413 34.3383C166.516 34.4211 166.598 34.5562 166.66 34.7439C166.727 35.0704 166.726 35.3828 166.656 35.6809C166.55 36.2722 166.362 36.946 166.092 37.7021C165.996 37.9799 165.89 38.3083 165.776 38.6873C165.662 39.0663 165.57 39.4295 165.5 39.777C165.437 40.1153 165.434 40.3622 165.49 40.5177C165.93 40.3844 166.514 39.9373 167.243 39.1762C167.979 38.4059 168.701 37.4939 169.41 36.4403Z" fill="#56504E"/>
<path d="M180.781 34.9874C180.86 34.8602 180.967 34.7821 181.102 34.7531C181.236 34.7161 181.367 34.7371 181.494 34.8161C181.621 34.8951 181.699 35.0022 181.728 35.1374C181.757 35.2726 181.736 35.4032 181.665 35.5291C180.984 36.6031 180.199 37.5083 179.311 38.2446C178.43 38.9797 177.546 39.4852 176.661 39.7611C175.782 40.0277 175.013 39.998 174.355 39.6721C174.169 39.5856 173.983 39.4458 173.798 39.2526C173.611 39.0514 173.463 38.7825 173.353 38.4461C173.035 38.9387 172.687 39.4029 172.311 39.8386C172.009 40.2299 171.618 40.5447 171.138 40.783C170.998 40.8373 170.86 40.8749 170.724 40.8959C170.234 40.9712 169.796 40.8455 169.409 40.519C168.926 40.0511 168.745 39.3273 168.865 38.3477C169.016 37.3471 169.364 36.4105 169.912 35.5377C170.458 34.6569 171.032 34.01 171.634 33.5971C172.267 33.1712 172.855 32.9904 173.399 33.0546C173.971 33.1392 174.404 33.4216 174.7 33.9019C174.822 33.9488 174.912 34.0294 174.971 34.1436C175.028 34.2497 175.043 34.3707 175.015 34.5065C174.85 35.1972 174.632 35.8632 174.361 36.5046C174.116 37.6922 174.273 38.4443 174.831 38.761C175.509 39.0592 176.433 38.8679 177.601 38.1871C178.778 37.5051 179.838 36.4385 180.781 34.9874ZM173.365 36.2017C173.464 35.7184 173.634 35.1706 173.877 34.5583C173.824 34.4268 173.741 34.3203 173.63 34.2389C173.518 34.1493 173.399 34.0978 173.274 34.0842C173.199 34.0793 173.118 34.0836 173.029 34.0972C172.797 34.1329 172.524 34.253 172.21 34.4573C171.705 34.806 171.223 35.3566 170.764 36.109C170.304 36.8614 170.015 37.6534 169.897 38.4848C169.821 39.1126 169.894 39.5366 170.117 39.757C170.212 39.841 170.314 39.887 170.422 39.895C170.537 39.8938 170.64 39.8697 170.731 39.8228C171.021 39.6796 171.287 39.458 171.528 39.158C172.281 38.2865 172.894 37.3011 173.365 36.2017Z" fill="#56504E"/>
<path d="M187.576 34.3858C187.715 34.4303 187.814 34.5136 187.873 34.6358C187.941 34.7568 187.957 34.8858 187.921 35.0229C187.635 35.9457 187.243 36.7083 186.745 37.3107C186.253 37.9039 185.711 38.3609 185.12 38.6819C184.527 38.9948 183.962 39.1926 183.424 39.2753C183.32 39.2913 183.219 39.3027 183.121 39.3095C182.055 39.3749 181.353 39.1051 181.013 38.5002C180.744 37.8681 180.725 37.2425 180.959 36.6234C181.184 36.0055 181.436 35.4821 181.715 35.0531C181.723 35.0518 181.731 35.0466 181.738 35.0373C181.736 35.0293 181.74 35.0247 181.748 35.0234C181.44 34.8901 181.163 34.7191 180.917 34.5105C180.572 34.1858 180.385 33.8817 180.358 33.5984C180.353 33.5663 180.349 33.5382 180.345 33.5141C180.29 33.2598 180.363 32.9364 180.565 32.5438C180.759 32.1445 181.124 31.7967 181.662 31.5004C182.015 31.2899 182.376 31.2304 182.743 31.3218C183.008 31.3878 183.197 31.519 183.309 31.7153C183.425 31.9357 183.457 32.173 183.406 32.4273C183.355 32.6816 183.257 32.898 183.112 33.0764C182.785 33.4634 182.422 33.7738 182.023 34.0078C182.201 34.0954 182.392 34.1646 182.597 34.2152C182.742 34.2504 182.852 34.3278 182.928 34.4476C182.996 34.5686 183.017 34.701 182.989 34.8448C182.928 35.0349 182.802 35.2843 182.612 35.5929C182.379 35.9491 182.17 36.3509 181.984 36.7984C181.798 37.2459 181.783 37.6589 181.94 38.0373C181.966 38.099 182.07 38.161 182.252 38.2234C182.442 38.2845 182.704 38.3018 183.036 38.2753C183.744 38.2321 184.471 37.9356 185.216 37.3856C185.96 36.8276 186.53 35.9431 186.927 34.7321C186.972 34.5938 187.054 34.4907 187.175 34.4228C187.296 34.355 187.43 34.3426 187.576 34.3858ZM181.378 33.1827C181.728 32.9976 182.038 32.7445 182.309 32.4236C182.337 32.3945 182.356 32.3587 182.366 32.3161C182.318 32.3236 182.26 32.3489 182.193 32.3921C181.735 32.668 181.463 32.9315 181.378 33.1827Z" fill="#56504E"/>
<path d="M198.74 32.2252C198.819 32.0981 198.926 32.02 199.061 31.991C199.195 31.9539 199.326 31.9749 199.453 32.054C199.58 32.133 199.658 32.2401 199.687 32.3753C199.716 32.5104 199.695 32.641 199.624 32.7669C198.943 33.8409 198.158 34.7461 197.269 35.4824C196.389 36.2176 195.505 36.723 194.619 36.9989C193.74 37.2655 192.972 37.2359 192.314 36.9099C192.128 36.8235 191.942 36.6837 191.757 36.4904C191.57 36.2892 191.421 36.0204 191.312 35.684C190.994 36.1765 190.646 36.6407 190.27 37.0764C189.968 37.4678 189.577 37.7826 189.096 38.0208C188.957 38.0751 188.819 38.1128 188.683 38.1337C188.193 38.209 187.755 38.0834 187.368 37.7568C186.885 37.2889 186.704 36.5652 186.824 35.5856C186.974 34.585 187.323 33.6483 187.871 32.7755C188.417 31.8947 188.991 31.2478 189.593 30.8349C190.226 30.409 190.814 30.2282 191.358 30.2924C191.929 30.377 192.363 30.6595 192.659 31.1397C192.781 31.1866 192.871 31.2672 192.93 31.3814C192.987 31.4876 193.002 31.6085 192.973 31.7443C192.809 32.4351 192.591 33.1011 192.32 33.7424C192.075 34.93 192.232 35.6822 192.79 35.9988C193.468 36.297 194.392 36.1057 195.56 35.4249C196.737 34.7429 197.797 33.6764 198.74 32.2252ZM191.324 33.4396C191.423 32.9563 191.593 32.4084 191.836 31.7961C191.782 31.6646 191.7 31.5582 191.589 31.4767C191.477 31.3872 191.358 31.3356 191.233 31.322C191.158 31.3171 191.077 31.3214 190.988 31.335C190.756 31.3708 190.483 31.4908 190.169 31.6951C189.664 32.0438 189.182 32.5944 188.723 33.3468C188.263 34.0993 187.974 34.8912 187.856 35.7226C187.78 36.3504 187.853 36.7745 188.076 36.9948C188.171 37.0788 188.273 37.1248 188.381 37.1328C188.496 37.1316 188.599 37.1075 188.69 37.0606C188.98 36.9174 189.246 36.6958 189.487 36.3959C190.24 35.5243 190.853 34.5389 191.324 33.4396Z" fill="#56504E"/>
<path d="M208.377 31.5934C208.053 32.1606 207.559 32.8198 206.894 33.571C206.236 34.3129 205.494 34.9897 204.668 35.6014C203.841 36.205 203.017 36.5905 202.197 36.7577C202.173 36.7614 202.149 36.7651 202.125 36.7688C201.37 36.8848 200.725 36.7212 200.189 36.278C198.912 35.1847 198.631 32.7471 199.348 28.9652C199.769 26.7893 200.43 24.4944 201.332 22.0803C202.242 19.665 203.228 17.5543 204.289 15.7482C205.357 13.9329 206.331 12.8425 207.211 12.4772C207.643 12.3451 207.994 12.4677 208.266 12.8448C208.665 13.4652 208.675 14.7574 208.295 16.7216C207.915 18.6857 207.056 21.0275 205.716 23.7471C204.383 26.4575 202.477 29.2601 199.998 32.1549C199.953 33.8376 200.239 34.9518 200.857 35.4975C201.149 35.7401 201.535 35.8203 202.016 35.7383C202.661 35.6062 203.341 35.2757 204.056 34.7467C204.78 34.2165 205.447 33.6169 206.059 32.9478C206.678 32.2695 207.149 31.6507 207.474 31.0915C207.553 30.9643 207.66 30.8822 207.793 30.8452C207.927 30.8082 208.057 30.8252 208.183 30.8961C208.309 30.9671 208.391 31.0696 208.428 31.2036C208.465 31.3375 208.448 31.4674 208.377 31.5934ZM200.362 29.1541C200.28 29.5775 200.214 29.9818 200.167 30.367C202.265 27.7197 203.877 25.1924 205.001 22.7851C206.134 20.3766 206.88 18.3356 207.239 16.6622C207.597 14.9889 207.669 13.9346 207.455 13.4994C206.792 13.8395 205.991 14.8252 205.051 16.4566C204.109 18.0799 203.206 20.0301 202.34 22.3072C201.475 24.5842 200.816 26.8665 200.362 29.1541Z" fill="#56504E"/>
</g>
</g>
</g>
<defs>
<clipPath id="clip0_1_225">
<rect width="209" height="88" fill="white" transform="translate(0.5 0.379883)"/>
</clipPath>
<clipPath id="clip1_1_225">
<rect width="209" height="88" fill="white" transform="translate(0.5 0.379883)"/>
</clipPath>
<clipPath id="clip2_1_225">
<rect width="209" height="88" fill="white" transform="translate(0.5 0.379883)"/>
</clipPath>
</defs>
</svg>
