<svg width="1441" height="49" viewBox="0 0 1441 49" fill="none" xmlns="http://www.w3.org/2000/svg">
<g clip-path="url(#clip0_1_170)">
<g clip-path="url(#clip1_1_170)">
<g clip-path="url(#clip2_1_170)">
<path d="M50.8181 14.9958V34.1576C50.8181 36.087 49.2508 37.6387 47.319 37.6387H37.6442V17.8557C37.6442 16.5202 36.5621 15.4531 35.2386 15.4531C33.915 15.4531 32.833 16.5202 32.833 17.8557V37.6387H23.1581C21.2264 37.6387 19.6591 36.087 19.6591 34.1576V14.9958C19.6591 13.8491 19.7274 12.6751 19.8755 11.5011C20.0099 10.2998 20.2946 9.18037 20.7138 8.1133C21.1466 7.03258 21.7139 6.02239 22.4155 5.06453C23.1445 4.12032 24.0785 3.29669 25.2266 2.60731C26.3884 1.93157 27.7803 1.3787 29.4159 0.987366C31.0515 0.568728 32.997 0.379883 35.2386 0.379883C37.4938 0.379883 39.4279 0.568728 41.0613 0.987366C42.7106 1.3787 44.1025 1.93157 45.2506 2.60731C46.4124 3.29442 47.3304 4.11804 48.0617 5.06453C48.777 6.02239 49.3442 7.03485 49.7634 8.1133C50.1825 9.18037 50.465 10.2998 50.6017 11.5011C50.7498 12.6751 50.8181 13.8491 50.8181 14.9958Z" fill="#FC6235"/>
<path d="M37.6442 37.6387V45.9773C37.6442 47.3129 36.5621 48.3799 35.2386 48.3799C33.915 48.3799 32.8329 47.3129 32.8329 45.9773V37.6387H37.6442Z" fill="#FC6235"/>
<path d="M126.977 14.9958V34.1576C126.977 36.087 125.41 37.6387 123.478 37.6387H113.803V17.8557C113.803 16.5202 112.721 15.4531 111.398 15.4531C110.074 15.4531 108.992 16.5202 108.992 17.8557V37.6387H99.3172C97.3854 37.6387 95.8181 36.087 95.8181 34.1576V14.9958C95.8181 13.8491 95.8865 12.6751 96.0345 11.5011C96.1689 10.2998 96.4537 9.18037 96.8728 8.1133C97.3057 7.03258 97.8729 6.02239 98.5745 5.06453C99.3035 4.12032 100.238 3.29669 101.386 2.60731C102.547 1.93157 103.939 1.3787 105.575 0.987366C107.211 0.568728 109.156 0.379883 111.398 0.379883C113.653 0.379883 115.587 0.568728 117.22 0.987366C118.87 1.3787 120.262 1.93157 121.41 2.60731C122.571 3.29442 123.489 4.11804 124.221 5.06453C124.936 6.02239 125.503 7.03485 125.922 8.1133C126.342 9.18037 126.624 10.2998 126.761 11.5011C126.909 12.6751 126.977 13.8491 126.977 14.9958Z" fill="#FC6235"/>
<path d="M113.803 37.6387V45.9773C113.803 47.3129 112.721 48.3799 111.398 48.3799C110.074 48.3799 108.992 47.3129 108.992 45.9773V37.6387H113.803Z" fill="#FC6235"/>
<path d="M203.136 14.9958V34.1576C203.136 36.087 201.569 37.6387 199.637 37.6387H189.962V17.8557C189.962 16.5202 188.88 15.4531 187.557 15.4531C186.233 15.4531 185.151 16.5202 185.151 17.8557V37.6387H175.476C173.544 37.6387 171.977 36.087 171.977 34.1576V14.9958C171.977 13.8491 172.046 12.6751 172.194 11.5011C172.328 10.2998 172.613 9.18037 173.032 8.1133C173.465 7.03258 174.032 6.02239 174.734 5.06453C175.463 4.12032 176.397 3.29669 177.545 2.60731C178.707 1.93157 180.098 1.3787 181.734 0.987366C183.37 0.568728 185.315 0.379883 187.557 0.379883C189.812 0.379883 191.746 0.568728 193.379 0.987366C195.029 1.3787 196.421 1.93157 197.569 2.60731C198.731 3.29442 199.649 4.11804 200.38 5.06453C201.095 6.02239 201.662 7.03485 202.082 8.1133C202.501 9.18037 202.783 10.2998 202.92 11.5011C203.068 12.6751 203.136 13.8491 203.136 14.9958Z" fill="#FC6235"/>
<path d="M189.962 37.6387V45.9773C189.962 47.3129 188.88 48.3799 187.557 48.3799C186.233 48.3799 185.151 47.3129 185.151 45.9773V37.6387H189.962Z" fill="#FC6235"/>
<path d="M279.295 14.9958V34.1576C279.295 36.087 277.728 37.6387 275.796 37.6387H266.121V17.8557C266.121 16.5202 265.039 15.4531 263.716 15.4531C262.392 15.4531 261.31 16.5202 261.31 17.8557V37.6387H251.635C249.704 37.6387 248.136 36.087 248.136 34.1576V14.9958C248.136 13.8491 248.205 12.6751 248.353 11.5011C248.487 10.2998 248.772 9.18037 249.191 8.1133C249.624 7.03258 250.191 6.02239 250.893 5.06453C251.622 4.12032 252.556 3.29669 253.704 2.60731C254.866 1.93157 256.257 1.3787 257.893 0.987366C259.529 0.568728 261.474 0.379883 263.716 0.379883C265.971 0.379883 267.905 0.568728 269.538 0.987366C271.188 1.3787 272.58 1.93157 273.728 2.60731C274.89 3.29442 275.808 4.11804 276.539 5.06453C277.254 6.02239 277.821 7.03485 278.241 8.1133C278.66 9.18037 278.942 10.2998 279.079 11.5011C279.227 12.6751 279.295 13.8491 279.295 14.9958Z" fill="#FC6235"/>
<path d="M266.121 37.6387V45.9773C266.121 47.3129 265.039 48.3799 263.716 48.3799C262.392 48.3799 261.31 47.3129 261.31 45.9773V37.6387H266.121Z" fill="#FC6235"/>
<path d="M355.454 14.9958V34.1576C355.454 36.087 353.887 37.6387 351.955 37.6387H342.28V17.8557C342.28 16.5202 341.198 15.4531 339.875 15.4531C338.551 15.4531 337.469 16.5202 337.469 17.8557V37.6387H327.794C325.863 37.6387 324.295 36.087 324.295 34.1576V14.9958C324.295 13.8491 324.364 12.6751 324.512 11.5011C324.646 10.2998 324.931 9.18037 325.35 8.1133C325.783 7.03258 326.35 6.02239 327.052 5.06453C327.781 4.12032 328.715 3.29669 329.863 2.60731C331.025 1.93157 332.417 1.3787 334.052 0.987366C335.688 0.568728 337.633 0.379883 339.875 0.379883C342.13 0.379883 344.064 0.568728 345.697 0.987366C347.347 1.3787 348.739 1.93157 349.887 2.60731C351.049 3.29442 351.967 4.11804 352.698 5.06453C353.413 6.02239 353.98 7.03485 354.4 8.1133C354.819 9.18037 355.101 10.2998 355.238 11.5011C355.386 12.6751 355.454 13.8491 355.454 14.9958Z" fill="#FC6235"/>
<path d="M342.28 37.6387V45.9773C342.28 47.3129 341.198 48.3799 339.875 48.3799C338.551 48.3799 337.469 47.3129 337.469 45.9773V37.6387H342.28Z" fill="#FC6235"/>
<path d="M431.613 14.9958V34.1576C431.613 36.087 430.046 37.6387 428.114 37.6387H418.439V17.8557C418.439 16.5202 417.357 15.4531 416.034 15.4531C414.71 15.4531 413.628 16.5202 413.628 17.8557V37.6387H403.953C402.022 37.6387 400.454 36.087 400.454 34.1576V14.9958C400.454 13.8491 400.523 12.6751 400.671 11.5011C400.805 10.2998 401.09 9.18037 401.509 8.1133C401.942 7.03258 402.509 6.02239 403.211 5.06453C403.94 4.12032 404.874 3.29669 406.022 2.60731C407.184 1.93157 408.576 1.3787 410.211 0.987366C411.847 0.568728 413.792 0.379883 416.034 0.379883C418.289 0.379883 420.223 0.568728 421.857 0.987366C423.506 1.3787 424.898 1.93157 426.046 2.60731C427.208 3.29442 428.126 4.11804 428.857 5.06453C429.572 6.02239 430.14 7.03485 430.559 8.1133C430.978 9.18037 431.26 10.2998 431.397 11.5011C431.545 12.6751 431.613 13.8491 431.613 14.9958Z" fill="#FC6235"/>
<path d="M418.44 37.6387V45.9773C418.44 47.3129 417.357 48.3799 416.034 48.3799C414.71 48.3799 413.628 47.3129 413.628 45.9773V37.6387H418.44Z" fill="#FC6235"/>
<path d="M507.772 14.9958V34.1576C507.772 36.087 506.205 37.6387 504.273 37.6387H494.599V17.8557C494.599 16.5202 493.516 15.4531 492.193 15.4531C490.869 15.4531 489.787 16.5202 489.787 17.8557V37.6387H480.112C478.181 37.6387 476.613 36.087 476.613 34.1576V14.9958C476.613 13.8491 476.682 12.6751 476.83 11.5011C476.964 10.2998 477.249 9.18037 477.668 8.1133C478.101 7.03258 478.668 6.02239 479.37 5.06453C480.099 4.12032 481.033 3.29669 482.181 2.60731C483.343 1.93157 484.735 1.3787 486.37 0.987366C488.006 0.568728 489.951 0.379883 492.193 0.379883C494.448 0.379883 496.382 0.568728 498.016 0.987366C499.665 1.3787 501.057 1.93157 502.205 2.60731C503.367 3.29442 504.285 4.11804 505.016 5.06453C505.731 6.02239 506.299 7.03485 506.718 8.1133C507.137 9.18037 507.419 10.2998 507.556 11.5011C507.704 12.6751 507.772 13.8491 507.772 14.9958Z" fill="#FC6235"/>
<path d="M494.599 37.6387V45.9773C494.599 47.3129 493.517 48.3799 492.193 48.3799C490.869 48.3799 489.787 47.3129 489.787 45.9773V37.6387H494.599Z" fill="#FC6235"/>
<path d="M583.932 14.9958V34.1576C583.932 36.087 582.364 37.6387 580.432 37.6387H570.758V17.8557C570.758 16.5202 569.676 15.4531 568.352 15.4531C567.028 15.4531 565.946 16.5202 565.946 17.8557V37.6387H556.272C554.34 37.6387 552.772 36.087 552.772 34.1576V14.9958C552.772 13.8491 552.841 12.6751 552.989 11.5011C553.123 10.2998 553.408 9.18037 553.827 8.1133C554.26 7.03258 554.827 6.02239 555.529 5.06453C556.258 4.12032 557.192 3.29669 558.34 2.60731C559.502 1.93157 560.894 1.3787 562.529 0.987366C564.165 0.568728 566.11 0.379883 568.352 0.379883C570.607 0.379883 572.541 0.568728 574.175 0.987366C575.824 1.3787 577.216 1.93157 578.364 2.60731C579.526 3.29442 580.444 4.11804 581.175 5.06453C581.89 6.02239 582.458 7.03485 582.877 8.1133C583.296 9.18037 583.578 10.2998 583.715 11.5011C583.863 12.6751 583.932 13.8491 583.932 14.9958Z" fill="#FC6235"/>
<path d="M570.758 37.6387V45.9773C570.758 47.3129 569.676 48.3799 568.352 48.3799C567.028 48.3799 565.946 47.3129 565.946 45.9773V37.6387H570.758Z" fill="#FC6235"/>
<path d="M660.091 14.9958V34.1576C660.091 36.087 658.523 37.6387 656.592 37.6387H646.917V17.8557C646.917 16.5202 645.835 15.4531 644.511 15.4531C643.188 15.4531 642.105 16.5202 642.105 17.8557V37.6387H632.431C630.499 37.6387 628.932 36.087 628.932 34.1576V14.9958C628.932 13.8491 629 12.6751 629.148 11.5011C629.282 10.2998 629.567 9.18037 629.986 8.1133C630.419 7.03258 630.986 6.02239 631.688 5.06453C632.417 4.12032 633.351 3.29669 634.499 2.60731C635.661 1.93157 637.053 1.3787 638.688 0.987366C640.324 0.568728 642.269 0.379883 644.511 0.379883C646.766 0.379883 648.7 0.568728 650.334 0.987366C651.983 1.3787 653.375 1.93157 654.523 2.60731C655.685 3.29442 656.603 4.11804 657.334 5.06453C658.049 6.02239 658.617 7.03485 659.036 8.1133C659.455 9.18037 659.737 10.2998 659.874 11.5011C660.022 12.6751 660.091 13.8491 660.091 14.9958Z" fill="#FC6235"/>
<path d="M646.917 37.6387V45.9773C646.917 47.3129 645.835 48.3799 644.511 48.3799C643.187 48.3799 642.105 47.3129 642.105 45.9773V37.6387H646.917Z" fill="#FC6235"/>
<path d="M736.25 14.9958V34.1576C736.25 36.087 734.682 37.6387 732.751 37.6387H723.076V17.8557C723.076 16.5202 721.994 15.4531 720.67 15.4531C719.347 15.4531 718.264 16.5202 718.264 17.8557V37.6387H708.59C706.658 37.6387 705.091 36.087 705.091 34.1576V14.9958C705.091 13.8491 705.159 12.6751 705.307 11.5011C705.441 10.2998 705.726 9.18037 706.145 8.1133C706.578 7.03258 707.145 6.02239 707.847 5.06453C708.576 4.12032 709.51 3.29669 710.658 2.60731C711.82 1.93157 713.212 1.3787 714.847 0.987366C716.483 0.568728 718.429 0.379883 720.67 0.379883C722.925 0.379883 724.859 0.568728 726.493 0.987366C728.142 1.3787 729.534 1.93157 730.682 2.60731C731.844 3.29442 732.762 4.11804 733.493 5.06453C734.209 6.02239 734.776 7.03485 735.195 8.1133C735.614 9.18037 735.897 10.2998 736.033 11.5011C736.181 12.6751 736.25 13.8491 736.25 14.9958Z" fill="#FC6235"/>
<path d="M723.076 37.6387V45.9773C723.076 47.3129 721.994 48.3799 720.67 48.3799C719.346 48.3799 718.264 47.3129 718.264 45.9773V37.6387H723.076Z" fill="#FC6235"/>
<path d="M812.409 14.9958V34.1576C812.409 36.087 810.841 37.6387 808.91 37.6387H799.235V17.8557C799.235 16.5202 798.153 15.4531 796.829 15.4531C795.506 15.4531 794.424 16.5202 794.424 17.8557V37.6387H784.749C782.817 37.6387 781.25 36.087 781.25 34.1576V14.9958C781.25 13.8491 781.318 12.6751 781.466 11.5011C781.6 10.2998 781.885 9.18037 782.304 8.1133C782.737 7.03258 783.304 6.02239 784.006 5.06453C784.735 4.12032 785.669 3.29669 786.817 2.60731C787.979 1.93157 789.371 1.3787 791.006 0.987366C792.642 0.568728 794.588 0.379883 796.829 0.379883C799.084 0.379883 801.018 0.568728 802.652 0.987366C804.301 1.3787 805.693 1.93157 806.841 2.60731C808.003 3.29442 808.921 4.11804 809.652 5.06453C810.368 6.02239 810.935 7.03485 811.354 8.1133C811.773 9.18037 812.056 10.2998 812.192 11.5011C812.34 12.6751 812.409 13.8491 812.409 14.9958Z" fill="#FC6235"/>
<path d="M799.235 37.6387V45.9773C799.235 47.3129 798.153 48.3799 796.829 48.3799C795.506 48.3799 794.423 47.3129 794.423 45.9773V37.6387H799.235Z" fill="#FC6235"/>
<path d="M888.568 14.9958V34.1576C888.568 36.087 887 37.6387 885.069 37.6387H875.394V17.8557C875.394 16.5202 874.312 15.4531 872.988 15.4531C871.665 15.4531 870.583 16.5202 870.583 17.8557V37.6387H860.908C858.976 37.6387 857.409 36.087 857.409 34.1576V14.9958C857.409 13.8491 857.477 12.6751 857.625 11.5011C857.76 10.2998 858.044 9.18037 858.463 8.1133C858.896 7.03258 859.463 6.02239 860.165 5.06453C860.894 4.12032 861.828 3.29669 862.976 2.60731C864.138 1.93157 865.53 1.3787 867.166 0.987366C868.801 0.568728 870.747 0.379883 872.988 0.379883C875.243 0.379883 877.178 0.568728 878.811 0.987366C880.46 1.3787 881.852 1.93157 883 2.60731C884.162 3.29442 885.08 4.11804 885.811 5.06453C886.527 6.02239 887.094 7.03485 887.513 8.1133C887.932 9.18037 888.215 10.2998 888.351 11.5011C888.499 12.6751 888.568 13.8491 888.568 14.9958Z" fill="#FC6235"/>
<path d="M875.394 37.6387V45.9773C875.394 47.3129 874.312 48.3799 872.988 48.3799C871.665 48.3799 870.583 47.3129 870.583 45.9773V37.6387H875.394Z" fill="#FC6235"/>
<path d="M964.727 14.9958V34.1576C964.727 36.087 963.16 37.6387 961.228 37.6387H951.553V17.8557C951.553 16.5202 950.471 15.4531 949.147 15.4531C947.824 15.4531 946.742 16.5202 946.742 17.8557V37.6387H937.067C935.135 37.6387 933.568 36.087 933.568 34.1576V14.9958C933.568 13.8491 933.636 12.6751 933.784 11.5011C933.919 10.2998 934.203 9.18037 934.622 8.1133C935.055 7.03258 935.623 6.02239 936.324 5.06453C937.053 4.12032 937.987 3.29669 939.135 2.60731C940.297 1.93157 941.689 1.3787 943.325 0.987366C944.96 0.568728 946.906 0.379883 949.147 0.379883C951.403 0.379883 953.337 0.568728 954.97 0.987366C956.619 1.3787 958.011 1.93157 959.159 2.60731C960.321 3.29442 961.239 4.11804 961.97 5.06453C962.686 6.02239 963.253 7.03485 963.672 8.1133C964.091 9.18037 964.374 10.2998 964.51 11.5011C964.658 12.6751 964.727 13.8491 964.727 14.9958Z" fill="#FC6235"/>
<path d="M951.553 37.6387V45.9773C951.553 47.3129 950.471 48.3799 949.147 48.3799C947.824 48.3799 946.742 47.3129 946.742 45.9773V37.6387H951.553Z" fill="#FC6235"/>
<path d="M1040.89 14.9958V34.1576C1040.89 36.087 1039.32 37.6387 1037.39 37.6387H1027.71V17.8557C1027.71 16.5202 1026.63 15.4531 1025.31 15.4531C1023.98 15.4531 1022.9 16.5202 1022.9 17.8557V37.6387H1013.23C1011.29 37.6387 1009.73 36.087 1009.73 34.1576V14.9958C1009.73 13.8491 1009.8 12.6751 1009.94 11.5011C1010.08 10.2998 1010.36 9.18037 1010.78 8.1133C1011.21 7.03258 1011.78 6.02239 1012.48 5.06453C1013.21 4.12032 1014.15 3.29669 1015.29 2.60731C1016.46 1.93157 1017.85 1.3787 1019.48 0.987366C1021.12 0.568728 1023.06 0.379883 1025.31 0.379883C1027.56 0.379883 1029.5 0.568728 1031.13 0.987366C1032.78 1.3787 1034.17 1.93157 1035.32 2.60731C1036.48 3.29442 1037.4 4.11804 1038.13 5.06453C1038.84 6.02239 1039.41 7.03485 1039.83 8.1133C1040.25 9.18037 1040.53 10.2998 1040.67 11.5011C1040.82 12.6751 1040.89 13.8491 1040.89 14.9958Z" fill="#FC6235"/>
<path d="M1027.71 37.6387V45.9773C1027.71 47.3129 1026.63 48.3799 1025.31 48.3799C1023.98 48.3799 1022.9 47.3129 1022.9 45.9773V37.6387H1027.71Z" fill="#FC6235"/>
<path d="M1117.04 14.9958V34.1576C1117.04 36.087 1115.48 37.6387 1113.55 37.6387H1103.87V17.8557C1103.87 16.5202 1102.79 15.4531 1101.47 15.4531C1100.14 15.4531 1099.06 16.5202 1099.06 17.8557V37.6387H1089.38C1087.45 37.6387 1085.89 36.087 1085.89 34.1576V14.9958C1085.89 13.8491 1085.95 12.6751 1086.1 11.5011C1086.24 10.2998 1086.52 9.18037 1086.94 8.1133C1087.37 7.03258 1087.94 6.02239 1088.64 5.06453C1089.37 4.12032 1090.31 3.29669 1091.45 2.60731C1092.62 1.93157 1094.01 1.3787 1095.64 0.987366C1097.28 0.568728 1099.22 0.379883 1101.47 0.379883C1103.72 0.379883 1105.65 0.568728 1107.29 0.987366C1108.94 1.3787 1110.33 1.93157 1111.48 2.60731C1112.64 3.29442 1113.56 4.11804 1114.29 5.06453C1115 6.02239 1115.57 7.03485 1115.99 8.1133C1116.41 9.18037 1116.69 10.2998 1116.83 11.5011C1116.98 12.6751 1117.04 13.8491 1117.04 14.9958Z" fill="#FC6235"/>
<path d="M1103.87 37.6387V45.9773C1103.87 47.3129 1102.79 48.3799 1101.47 48.3799C1100.14 48.3799 1099.06 47.3129 1099.06 45.9773V37.6387H1103.87Z" fill="#FC6235"/>
<path d="M1193.2 14.9958V34.1576C1193.2 36.087 1191.64 37.6387 1189.7 37.6387H1180.03V17.8557C1180.03 16.5202 1178.95 15.4531 1177.62 15.4531C1176.3 15.4531 1175.22 16.5202 1175.22 17.8557V37.6387H1165.54C1163.61 37.6387 1162.04 36.087 1162.04 34.1576V14.9958C1162.04 13.8491 1162.11 12.6751 1162.26 11.5011C1162.4 10.2998 1162.68 9.18037 1163.1 8.1133C1163.53 7.03258 1164.1 6.02239 1164.8 5.06453C1165.53 4.12032 1166.46 3.29669 1167.61 2.60731C1168.77 1.93157 1170.17 1.3787 1171.8 0.987366C1173.44 0.568728 1175.38 0.379883 1177.62 0.379883C1179.88 0.379883 1181.81 0.568728 1183.45 0.987366C1185.1 1.3787 1186.49 1.93157 1187.64 2.60731C1188.8 3.29442 1189.72 4.11804 1190.45 5.06453C1191.16 6.02239 1191.73 7.03485 1192.15 8.1133C1192.57 9.18037 1192.85 10.2998 1192.99 11.5011C1193.14 12.6751 1193.2 13.8491 1193.2 14.9958Z" fill="#FC6235"/>
<path d="M1180.03 37.6387V45.9773C1180.03 47.3129 1178.95 48.3799 1177.62 48.3799C1176.3 48.3799 1175.22 47.3129 1175.22 45.9773V37.6387H1180.03Z" fill="#FC6235"/>
<path d="M1269.36 14.9958V34.1576C1269.36 36.087 1267.8 37.6387 1265.86 37.6387H1256.19V17.8557C1256.19 16.5202 1255.11 15.4531 1253.78 15.4531C1252.46 15.4531 1251.38 16.5202 1251.38 17.8557V37.6387H1241.7C1239.77 37.6387 1238.2 36.087 1238.2 34.1576V14.9958C1238.2 13.8491 1238.27 12.6751 1238.42 11.5011C1238.55 10.2998 1238.84 9.18037 1239.26 8.1133C1239.69 7.03258 1240.26 6.02239 1240.96 5.06453C1241.69 4.12032 1242.62 3.29669 1243.77 2.60731C1244.93 1.93157 1246.33 1.3787 1247.96 0.987366C1249.6 0.568728 1251.54 0.379883 1253.78 0.379883C1256.04 0.379883 1257.97 0.568728 1259.61 0.987366C1261.26 1.3787 1262.65 1.93157 1263.8 2.60731C1264.96 3.29442 1265.88 4.11804 1266.61 5.06453C1267.32 6.02239 1267.89 7.03485 1268.31 8.1133C1268.73 9.18037 1269.01 10.2998 1269.15 11.5011C1269.29 12.6751 1269.36 13.8491 1269.36 14.9958Z" fill="#FC6235"/>
<path d="M1256.19 37.6387V45.9773C1256.19 47.3129 1255.11 48.3799 1253.78 48.3799C1252.46 48.3799 1251.38 47.3129 1251.38 45.9773V37.6387H1256.19Z" fill="#FC6235"/>
<path d="M1345.52 14.9958V34.1576C1345.52 36.087 1343.96 37.6387 1342.02 37.6387H1332.35V17.8557C1332.35 16.5202 1331.27 15.4531 1329.94 15.4531C1328.62 15.4531 1327.54 16.5202 1327.54 17.8557V37.6387H1317.86C1315.93 37.6387 1314.36 36.087 1314.36 34.1576V14.9958C1314.36 13.8491 1314.43 12.6751 1314.58 11.5011C1314.71 10.2998 1315 9.18037 1315.42 8.1133C1315.85 7.03258 1316.42 6.02239 1317.12 5.06453C1317.85 4.12032 1318.78 3.29669 1319.93 2.60731C1321.09 1.93157 1322.48 1.3787 1324.12 0.987366C1325.76 0.568728 1327.7 0.379883 1329.94 0.379883C1332.2 0.379883 1334.13 0.568728 1335.77 0.987366C1337.41 1.3787 1338.81 1.93157 1339.95 2.60731C1341.12 3.29442 1342.03 4.11804 1342.77 5.06453C1343.48 6.02239 1344.05 7.03485 1344.47 8.1133C1344.89 9.18037 1345.17 10.2998 1345.31 11.5011C1345.45 12.6751 1345.52 13.8491 1345.52 14.9958Z" fill="#FC6235"/>
<path d="M1332.35 37.6387V45.9773C1332.35 47.3129 1331.27 48.3799 1329.94 48.3799C1328.62 48.3799 1327.54 47.3129 1327.54 45.9773V37.6387H1332.35Z" fill="#FC6235"/>
<path d="M1421.68 14.9958V34.1576C1421.68 36.087 1420.11 37.6387 1418.18 37.6387H1408.51V17.8557C1408.51 16.5202 1407.43 15.4531 1406.1 15.4531C1404.78 15.4531 1403.7 16.5202 1403.7 17.8557V37.6387H1394.02C1392.09 37.6387 1390.52 36.087 1390.52 34.1576V14.9958C1390.52 13.8491 1390.59 12.6751 1390.74 11.5011C1390.87 10.2998 1391.16 9.18037 1391.58 8.1133C1392.01 7.03258 1392.58 6.02239 1393.28 5.06453C1394.01 4.12032 1394.94 3.29669 1396.09 2.60731C1397.25 1.93157 1398.64 1.3787 1400.28 0.987366C1401.91 0.568728 1403.86 0.379883 1406.1 0.379883C1408.36 0.379883 1410.29 0.568728 1411.92 0.987366C1413.57 1.3787 1414.97 1.93157 1416.11 2.60731C1417.28 3.29442 1418.19 4.11804 1418.93 5.06453C1419.64 6.02239 1420.21 7.03485 1420.63 8.1133C1421.05 9.18037 1421.33 10.2998 1421.47 11.5011C1421.61 12.6751 1421.68 13.8491 1421.68 14.9958Z" fill="#FC6235"/>
<path d="M1408.51 37.6387V45.9773C1408.51 47.3129 1407.43 48.3799 1406.1 48.3799C1404.78 48.3799 1403.7 47.3129 1403.7 45.9773V37.6387H1408.51Z" fill="#FC6235"/>
</g>
</g>
</g>
<defs>
<clipPath id="clip0_1_170">
<rect width="1440" height="48" fill="white" transform="translate(0.5 0.379883)"/>
</clipPath>
<clipPath id="clip1_1_170">
<rect width="1440" height="48" fill="white" transform="translate(0.5 0.379883)"/>
</clipPath>
<clipPath id="clip2_1_170">
<rect width="1440" height="48" fill="white" transform="translate(0.5 0.379883)"/>
</clipPath>
</defs>
</svg>
