<svg width="141" height="55" viewBox="0 0 141 55" fill="none" xmlns="http://www.w3.org/2000/svg">
<g clip-path="url(#clip0_1_242)">
<g clip-path="url(#clip1_1_242)">
<g clip-path="url(#clip2_1_242)">
<path d="M35.6819 16.8806V38.5135C35.6819 40.6917 33.9125 42.4435 31.7316 42.4435H20.809V20.1093C20.809 18.6016 19.5875 17.3969 18.0932 17.3969C16.599 17.3969 15.3774 18.6016 15.3774 20.1093V42.4435H4.45488C2.27398 42.4435 0.504578 40.6917 0.504578 38.5135V16.8806C0.504578 15.586 0.581731 14.2607 0.748899 12.9353C0.900637 11.579 1.22212 10.3153 1.69532 9.11059C2.18397 7.8905 2.82436 6.75004 3.61647 5.66866C4.43946 4.60268 5.4939 3.67284 6.7901 2.89456C8.10172 2.13168 9.6731 1.50751 11.5197 1.06571C13.3662 0.593081 15.5625 0.379883 18.0932 0.379883C20.6393 0.379883 22.8227 0.593081 24.6668 1.06571C26.5288 1.50751 28.1002 2.13168 29.3963 2.89456C30.7079 3.67028 31.7444 4.60011 32.5699 5.66866C33.3775 6.75004 34.0179 7.89307 34.4911 9.11059C34.9643 10.3153 35.2833 11.579 35.4375 12.9353C35.6047 14.2607 35.6819 15.586 35.6819 16.8806Z" fill="#FC6235"/>
<path d="M20.809 42.4434V51.8573C20.809 53.3651 19.5874 54.5697 18.0932 54.5697C16.599 54.5697 15.3774 53.3651 15.3774 51.8573V42.4434H20.809Z" fill="#FC6235"/>
<path d="M87.7935 16.8806V38.5135C87.7935 40.6917 86.0241 42.4435 83.8431 42.4435H72.9207V20.1093C72.9207 18.6016 71.6991 17.3969 70.2049 17.3969C68.7106 17.3969 67.4891 18.6016 67.4891 20.1093V42.4435H56.5665C54.3857 42.4435 52.6163 40.6917 52.6163 38.5135V16.8806C52.6163 15.586 52.6934 14.2607 52.8606 12.9353C53.0123 11.579 53.3337 10.3153 53.807 9.11059C54.2956 7.8905 54.9361 6.75004 55.7281 5.66866C56.5511 4.60268 57.6056 3.67284 58.9017 2.89456C60.2134 2.13168 61.7848 1.50751 63.6313 1.06571C65.4778 0.593081 67.6742 0.379883 70.2049 0.379883C72.7509 0.379883 74.9344 0.593081 76.7785 1.06571C78.6405 1.50751 80.2119 2.13168 81.508 2.89456C82.8196 3.67028 83.856 4.60011 84.6816 5.66866C85.4892 6.75004 86.1295 7.89307 86.6028 9.11059C87.0759 10.3153 87.3949 11.579 87.5492 12.9353C87.7164 14.2607 87.7935 15.586 87.7935 16.8806Z" fill="#FC6235"/>
<path d="M72.9207 42.4434V51.8573C72.9207 53.3651 71.6991 54.5697 70.2049 54.5697C68.7106 54.5697 67.489 53.3651 67.489 51.8573V42.4434H72.9207Z" fill="#FC6235"/>
<path d="M139.905 16.8806V38.5135C139.905 40.6917 138.136 42.4435 135.955 42.4435H125.032V20.1093C125.032 18.6016 123.811 17.3969 122.317 17.3969C120.822 17.3969 119.601 18.6016 119.601 20.1093V42.4435H108.678C106.497 42.4435 104.728 40.6917 104.728 38.5135V16.8806C104.728 15.586 104.805 14.2607 104.972 12.9353C105.124 11.579 105.445 10.3153 105.919 9.11059C106.407 7.8905 107.048 6.75004 107.84 5.66866C108.663 4.60268 109.717 3.67284 111.013 2.89456C112.325 2.13168 113.896 1.50751 115.743 1.06571C117.59 0.593081 119.786 0.379883 122.317 0.379883C124.863 0.379883 127.046 0.593081 128.89 1.06571C130.753 1.50751 132.324 2.13168 133.62 2.89456C134.931 3.67028 135.967 4.60011 136.794 5.66866C137.601 6.75004 138.241 7.89307 138.714 9.11059C139.188 10.3153 139.506 11.579 139.661 12.9353C139.828 14.2607 139.905 15.586 139.905 16.8806Z" fill="#FC6235"/>
<path d="M125.032 42.4434V51.8573C125.032 53.3651 123.811 54.5697 122.317 54.5697C120.822 54.5697 119.601 53.3651 119.601 51.8573V42.4434H125.032Z" fill="#FC6235"/>
</g>
</g>
</g>
<defs>
<clipPath id="clip0_1_242">
<rect width="140" height="54.19" fill="white" transform="translate(0.5 0.379883)"/>
</clipPath>
<clipPath id="clip1_1_242">
<rect width="140" height="54.19" fill="white" transform="translate(0.5 0.379883)"/>
</clipPath>
<clipPath id="clip2_1_242">
<rect width="139.991" height="54.19" fill="white" transform="translate(0.504578 0.379883)"/>
</clipPath>
</defs>
</svg>
