<svg width="60" height="60" viewBox="0 0 60 60" fill="none" xmlns="http://www.w3.org/2000/svg">
<rect width="60" height="60" rx="30" fill="#25D366"/>
<path d="M17.2737 17.2718C24.3027 10.2427 35.6997 10.2427 42.7287 17.2718C49.7577 24.3008 49.7577 35.6963 42.7287 42.7268C40.0776 45.379 36.6643 47.1371 32.9655 47.7553C29.2668 48.3736 25.4673 47.8212 22.0977 46.1753L13.3767 47.2778C13.2875 47.2891 13.1968 47.2798 13.1117 47.2506C13.0266 47.2214 12.9494 47.173 12.8859 47.1093C12.8225 47.0455 12.7745 46.968 12.7457 46.8828C12.7168 46.7976 12.708 46.7069 12.7197 46.6178L13.8417 37.9358C12.1866 34.564 11.6278 30.7589 12.2435 27.0537C12.8592 23.3484 14.6186 19.9286 17.2752 17.2733L17.2737 17.2718ZM22.6887 42.8363L23.1387 43.0733C25.9272 44.5342 29.1095 45.0662 32.2216 44.5919C35.3337 44.1176 38.213 42.6616 40.4397 40.4363C46.2042 34.6718 46.2042 25.3253 40.4397 19.5593C34.6752 13.7932 25.3272 13.7947 19.5627 19.5593C17.3334 21.7901 15.8764 24.6758 15.4049 27.7942C14.9334 30.9126 15.4721 34.1 16.9422 36.8902L17.1822 37.3448L16.4172 43.2578C16.4113 43.3023 16.4158 43.3477 16.4302 43.3903C16.4446 43.4329 16.4686 43.4716 16.5003 43.5035C16.532 43.5354 16.5707 43.5596 16.6132 43.5742C16.6557 43.5888 16.7011 43.5934 16.7457 43.5878L22.6887 42.8363ZM32.4897 32.3318L31.0902 34.0778C28.924 32.8052 27.1185 31.0007 25.8447 28.8353L27.5937 27.4358C27.7994 27.2722 27.9449 27.045 28.0074 26.7898C28.0698 26.5345 28.0457 26.2658 27.9387 26.0258L26.3412 22.4378C26.2274 22.1798 26.0253 21.9709 25.7712 21.8485C25.5172 21.7262 25.2279 21.6984 24.9552 21.7703L21.9207 22.5563C21.6376 22.6302 21.3915 22.8054 21.229 23.0487C21.0664 23.292 20.9987 23.5864 21.0387 23.8763C21.5712 27.6681 23.3238 31.1835 26.0313 33.8911C28.7389 36.5987 32.2543 38.3512 36.0462 38.8838C36.3358 38.9238 36.6301 38.8563 36.8733 38.6941C37.1166 38.5318 37.2919 38.286 37.3662 38.0033L38.1537 34.9688C38.2251 34.6963 38.1972 34.4073 38.0748 34.1536C37.9525 33.8999 37.7438 33.698 37.4862 33.5843L33.8997 31.9883C33.6597 31.8813 33.3909 31.8571 33.1357 31.9196C32.8804 31.982 32.6532 32.1276 32.4897 32.3333V32.3318Z" fill="white"/>
</svg>
