<svg width="69" height="76" viewBox="0 0 69 76" fill="none" xmlns="http://www.w3.org/2000/svg">
<rect width="69" height="76" fill="#FC6235"/>
<path d="M51.1772 27.5007V49.1336C51.1772 51.3118 49.4078 53.0636 47.2269 53.0636H36.3044V30.7294C36.3044 29.2217 35.0828 28.017 33.5886 28.017C32.0943 28.017 30.8728 29.2217 30.8728 30.7294V53.0636H19.9502C17.7694 53.0636 16 51.3118 16 49.1336V27.5007C16 26.2062 16.0771 24.8808 16.2443 23.5554C16.396 22.1991 16.7175 20.9354 17.1907 19.7307C17.6793 18.5106 18.3198 17.3702 19.1119 16.2888C19.9349 15.2228 20.9893 14.293 22.2855 13.5147C23.5971 12.7518 25.1685 12.1276 27.015 11.6858C28.8615 11.2132 31.0579 11 33.5886 11C36.1346 11 38.3182 11.2132 40.1622 11.6858C42.0242 12.1276 43.5956 12.7518 44.8917 13.5147C46.2034 14.2904 47.2397 15.2202 48.0654 16.2888C48.8729 17.3702 49.5132 18.5132 49.9865 19.7307C50.4596 20.9354 50.7786 22.1991 50.9329 23.5554C51.1001 24.8808 51.1772 26.2062 51.1772 27.5007Z" fill="white"/>
<path d="M36.3044 53.0636V62.4775C36.3044 63.9854 35.0828 65.19 33.5886 65.19C32.0943 65.19 30.8727 63.9854 30.8727 62.4775V53.0636H36.3044Z" fill="white"/>
</svg>
