<svg width="125" height="48" viewBox="0 0 125 48" fill="none" xmlns="http://www.w3.org/2000/svg">
<g clip-path="url(#clip0_1_34)">
<g clip-path="url(#clip1_1_34)">
<g clip-path="url(#clip2_1_34)">
<path d="M31.6591 14.6159V33.7777C31.6591 35.7071 30.0918 37.2588 28.16 37.2588H18.4851V17.4758C18.4851 16.1403 17.4031 15.0732 16.0795 15.0732C14.756 15.0732 13.6739 16.1403 13.6739 17.4758V37.2588H3.99907C2.06729 37.2588 0.5 35.7071 0.5 33.7777V14.6159C0.5 13.4692 0.568341 12.2952 0.716413 11.1212C0.850818 9.91989 1.13558 8.80049 1.55473 7.73342C1.98756 6.6527 2.5548 5.64251 3.25643 4.68465C3.98541 3.74044 4.9194 2.91681 6.06754 2.22743C7.22934 1.55169 8.62122 0.998818 10.2569 0.607483C11.8925 0.188845 13.8379 0 16.0795 0C18.3348 0 20.2688 0.188845 21.9022 0.607483C23.5515 0.998818 24.9434 1.55169 26.0915 2.22743C27.2533 2.91454 28.1714 3.73816 28.9026 4.68465C29.6179 5.64251 30.1852 6.65497 30.6043 7.73342C31.0235 8.80049 31.306 9.91989 31.4426 11.1212C31.5907 12.2952 31.6591 13.4692 31.6591 14.6159Z" fill="#FC6235"/>
<path d="M18.4851 37.2588V45.5974C18.4851 46.933 17.403 48 16.0795 48C14.756 48 13.6739 46.933 13.6739 45.5974V37.2588H18.4851Z" fill="#FC6235"/>
<path d="M77.8181 14.6159V33.7777C77.8181 35.7071 76.2508 37.2588 74.319 37.2588H64.6442V17.4758C64.6442 16.1403 63.5621 15.0732 62.2386 15.0732C60.915 15.0732 59.833 16.1403 59.833 17.4758V37.2588H50.1581C48.2264 37.2588 46.6591 35.7071 46.6591 33.7777V14.6159C46.6591 13.4692 46.7274 12.2952 46.8755 11.1212C47.0099 9.91989 47.2946 8.80049 47.7138 7.73342C48.1466 6.6527 48.7139 5.64251 49.4155 4.68465C50.1445 3.74044 51.0785 2.91681 52.2266 2.22743C53.3884 1.55169 54.7803 0.998818 56.4159 0.607483C58.0515 0.188845 59.997 0 62.2386 0C64.4938 0 66.4279 0.188845 68.0613 0.607483C69.7106 0.998818 71.1025 1.55169 72.2506 2.22743C73.4124 2.91454 74.3304 3.73816 75.0617 4.68465C75.777 5.64251 76.3442 6.65497 76.7634 7.73342C77.1825 8.80049 77.465 9.91989 77.6017 11.1212C77.7498 12.2952 77.8181 13.4692 77.8181 14.6159Z" fill="#FC6235"/>
<path d="M64.6442 37.2588V45.5974C64.6442 46.933 63.5621 48 62.2386 48C60.915 48 59.8329 46.933 59.8329 45.5974V37.2588H64.6442Z" fill="#FC6235"/>
<path d="M123.977 14.6159V33.7777C123.977 35.7071 122.41 37.2588 120.478 37.2588H110.803V17.4758C110.803 16.1403 109.721 15.0732 108.398 15.0732C107.074 15.0732 105.992 16.1403 105.992 17.4758V37.2588H96.3172C94.3854 37.2588 92.8181 35.7071 92.8181 33.7777V14.6159C92.8181 13.4692 92.8865 12.2952 93.0345 11.1212C93.1689 9.91989 93.4537 8.80049 93.8728 7.73342C94.3057 6.6527 94.8729 5.64251 95.5745 4.68465C96.3035 3.74044 97.2375 2.91681 98.3857 2.22743C99.5475 1.55169 100.939 0.998818 102.575 0.607483C104.211 0.188845 106.156 0 108.398 0C110.653 0 112.587 0.188845 114.22 0.607483C115.87 0.998818 117.262 1.55169 118.41 2.22743C119.571 2.91454 120.489 3.73816 121.221 4.68465C121.936 5.64251 122.503 6.65497 122.922 7.73342C123.342 8.80049 123.624 9.91989 123.761 11.1212C123.909 12.2952 123.977 13.4692 123.977 14.6159Z" fill="#FC6235"/>
<path d="M110.803 37.2588V45.5974C110.803 46.933 109.721 48 108.398 48C107.074 48 105.992 46.933 105.992 45.5974V37.2588H110.803Z" fill="#FC6235"/>
</g>
</g>
</g>
<defs>
<clipPath id="clip0_1_34">
<rect width="124" height="48" fill="white" transform="translate(0.5)"/>
</clipPath>
<clipPath id="clip1_1_34">
<rect width="124" height="48" fill="white" transform="translate(0.5)"/>
</clipPath>
<clipPath id="clip2_1_34">
<rect width="124" height="48" fill="white" transform="translate(0.5)"/>
</clipPath>
</defs>
</svg>
