<svg width="33" height="32" viewBox="0 0 33 32" fill="none" xmlns="http://www.w3.org/2000/svg">
<g id="SVG">
<path id="Vector" fill-rule="evenodd" clip-rule="evenodd" d="M14.484 16.7027L15.1814 17.3013C15.94 17.952 17.0587 17.952 17.8174 17.3013L18.5147 16.7027C19.2734 16.052 20.392 16.052 21.1507 16.7027C22.1227 17.5373 23.616 17.2693 24.2374 16.1507L24.5774 15.5373C24.744 15.2373 24.832 14.8987 24.832 14.5547C24.832 13.288 23.8054 12.26 22.5374 12.26H10.4613C9.19469 12.26 8.16669 13.2867 8.16669 14.5547C8.16669 14.8987 8.25469 15.2373 8.42135 15.5373L8.76135 16.1507C9.38402 17.2707 10.876 17.5373 11.848 16.7027C12.6067 16.052 13.7267 16.052 14.484 16.7027Z" stroke="#56504E" stroke-width="1.2965" stroke-linecap="round" stroke-linejoin="round"/>
<path id="Vector_2" d="M24.5787 15.5374L17.6653 27.9814C17.1573 28.8961 15.8427 28.8961 15.3347 27.9814L8.42133 15.5374" stroke="#56504E" stroke-width="1.2965" stroke-linecap="round" stroke-linejoin="round"/>
<path id="Vector_3" d="M9.95065 12.3173C9.88131 12.0213 9.83331 11.7173 9.83331 11.4013C9.83331 9.10396 11.7026 7.23462 14 7.23462C14.936 7.23462 15.7906 7.55729 16.4866 8.08129" stroke="#56504E" stroke-width="1.2965" stroke-linecap="round" stroke-linejoin="round"/>
<path id="Vector_4" d="M23.0493 12.3173C23.1186 12.0213 23.1666 11.7173 23.1666 11.4013C23.1666 9.10396 21.2973 7.23462 19 7.23462C16.7026 7.23462 14.8333 9.10396 14.8333 11.4013V12.26" stroke="#FC6235" stroke-width="1.2965" stroke-linecap="round" stroke-linejoin="round"/>
<path id="Vector_5" d="M12.3333 7.58137V7.50003C12.3333 5.2027 14.2026 3.33337 16.5 3.33337C18.7973 3.33337 20.6666 5.2027 20.6666 7.50003V7.58137" stroke="#FC6235" stroke-width="1.2965" stroke-linecap="round" stroke-linejoin="round"/>
</g>
</svg>
