<svg width="33" height="32" viewBox="0 0 33 32" fill="none" xmlns="http://www.w3.org/2000/svg">
<g id="SVG">
<path id="Vector" fill-rule="evenodd" clip-rule="evenodd" d="M8.49666 28.005H5.82888C5.0922 28.005 4.495 27.4078 4.495 26.6711V18.6678C4.495 17.9311 5.0922 17.3339 5.82888 17.3339H8.49666C9.23335 17.3339 9.83055 17.9311 9.83055 18.6678V26.6711C9.83055 27.4078 9.23335 28.005 8.49666 28.005Z" stroke="#56504E" stroke-width="1.5" stroke-linecap="round" stroke-linejoin="round"/>
<path id="Vector_2" d="M18.0035 22.6693H21.1154C21.6927 22.6693 22.2543 22.4821 22.7161 22.1358L25.9388 19.7188C26.7433 19.1157 27.8689 19.1958 28.5799 19.9069C28.9588 20.2854 29.1717 20.799 29.172 21.3346C29.1722 21.8702 28.9596 22.384 28.581 22.7629L28.5799 22.764L25.8147 25.5292C25.0699 26.2741 24.1212 26.7819 23.0882 26.9885L19.18 27.7701C18.4051 27.925 17.6055 27.9059 16.839 27.7141L13.3042 26.8311C12.8816 26.7246 12.4474 26.6708 12.0116 26.671H9.83057" stroke="#56504E" stroke-width="1.5" stroke-linecap="round" stroke-linejoin="round"/>
<path id="Vector_3" d="M18.0035 22.6694H19.9843C21.1004 22.6694 22.0051 21.7647 22.0051 20.6486V20.2484C22.0051 19.3216 21.3744 18.5136 20.4752 18.289L17.4179 17.5246C16.9211 17.3993 16.4109 17.3352 15.8986 17.3339C14.6618 17.3335 13.4526 17.6997 12.4238 18.3863L9.83057 20.1147" stroke="#56504E" stroke-width="1.5" stroke-linecap="round" stroke-linejoin="round"/>
<path id="Vector_4" d="M19.4536 8.37782H18.9534C18.4796 8.37782 18.0252 8.18959 17.6902 7.85456C17.3551 7.51953 17.1669 7.06514 17.1669 6.59133C17.1669 6.11753 17.3551 5.66313 17.6902 5.3281C18.0252 4.99306 18.4796 4.80484 18.9534 4.80484H19.4536C21.0322 4.80484 22.312 3.84506 22.312 2.66114C23.3346 2.65894 24.2805 3.20325 24.7925 4.08853C25.3045 4.97381 25.3045 6.06515 24.7925 6.95043C24.2805 7.83571 23.3346 8.38002 22.312 8.37782" stroke="#FC6235" stroke-width="1.5" stroke-linecap="round" stroke-linejoin="round"/>
<path id="Vector_5" fill-rule="evenodd" clip-rule="evenodd" d="M23.5508 13.3327H18.7874C17.8271 13.3327 16.9061 12.9512 16.2271 12.2722C15.548 11.5932 15.1666 10.6722 15.1666 9.71193C15.1666 8.97525 15.7638 8.37805 16.5005 8.37805H25.8377C26.5744 8.37805 27.1716 8.97525 27.1716 9.71193C27.1716 11.7116 25.5505 13.3327 23.5508 13.3327Z" stroke="#FC6235" stroke-width="1.5" stroke-linecap="round" stroke-linejoin="round"/>
</g>
</svg>
