<svg width="51" height="51" viewBox="0 0 51 51" fill="none" xmlns="http://www.w3.org/2000/svg">
<rect x="0.659973" y="0.879883" width="49" height="49" rx="24.5" stroke="#7A7A7A" stroke-opacity="0.2"/>
<path d="M25.1649 19.7644C22.0594 19.7644 19.5545 22.2693 19.5545 25.3748C19.5545 28.4802 22.0594 30.9851 25.1649 30.9851C28.2703 30.9851 30.7752 28.4802 30.7752 25.3748C30.7752 22.2693 28.2703 19.7644 25.1649 19.7644ZM25.1649 29.0222C23.158 29.0222 21.5174 27.3865 21.5174 25.3748C21.5174 23.363 23.1531 21.7273 25.1649 21.7273C27.1766 21.7273 28.8123 23.363 28.8123 25.3748C28.8123 27.3865 27.1717 29.0222 25.1649 29.0222ZM32.3133 19.5349C32.3133 20.2625 31.7274 20.8435 31.0047 20.8435C30.2772 20.8435 29.6961 20.2576 29.6961 19.5349C29.6961 18.8123 30.282 18.2263 31.0047 18.2263C31.7274 18.2263 32.3133 18.8123 32.3133 19.5349ZM36.0291 20.863C35.9461 19.1101 35.5457 17.5574 34.2615 16.2781C32.9822 14.9988 31.4295 14.5984 29.6766 14.5105C27.8699 14.408 22.4549 14.408 20.6483 14.5105C18.9002 14.5935 17.3475 14.9939 16.0633 16.2732C14.7791 17.5525 14.3836 19.1052 14.2957 20.8582C14.1932 22.6648 14.1932 28.0798 14.2957 29.8865C14.3787 31.6394 14.7791 33.1921 16.0633 34.4714C17.3475 35.7507 18.8953 36.1511 20.6483 36.239C22.4549 36.3416 27.8699 36.3416 29.6766 36.239C31.4295 36.156 32.9822 35.7556 34.2615 34.4714C35.5408 33.1921 35.9412 31.6394 36.0291 29.8865C36.1317 28.0798 36.1317 22.6697 36.0291 20.863ZM33.6951 31.825C33.3143 32.782 32.577 33.5193 31.6151 33.905C30.1746 34.4763 26.7567 34.3445 25.1649 34.3445C23.5731 34.3445 20.1502 34.4714 18.7147 33.905C17.7576 33.5242 17.0203 32.7869 16.6346 31.825C16.0633 30.3845 16.1951 26.9666 16.1951 25.3748C16.1951 23.783 16.0682 20.3601 16.6346 18.9246C17.0154 17.9675 17.7527 17.2302 18.7147 16.8445C20.1551 16.2732 23.5731 16.405 25.1649 16.405C26.7567 16.405 30.1795 16.2781 31.6151 16.8445C32.5721 17.2253 33.3094 17.9626 33.6951 18.9246C34.2664 20.365 34.1346 23.783 34.1346 25.3748C34.1346 26.9666 34.2664 30.3894 33.6951 31.825Z" fill="#FF4D1A"/>
</svg>
