<svg width="301" height="193" viewBox="0 0 301 193" fill="none" xmlns="http://www.w3.org/2000/svg">
<g clip-path="url(#clip0_24_2)">
<g clip-path="url(#clip1_24_2)">
<path fill-rule="evenodd" clip-rule="evenodd" d="M41.2743 101.142V131.888C41.2743 135.389 42.7456 137.571 46.1957 137.571C54.1613 137.571 68.5957 138.763 73.923 134.933C81.5587 129.428 79.5039 118.9 73.923 115.932C76.9164 111.467 76.9671 111.391 76.9671 106.444C76.9671 101.498 71.0564 96.1956 64.4353 96.1956H45.46C42.7964 96.1956 41.2743 98.3773 41.2743 101.117" fill="#E53012"/>
<path fill-rule="evenodd" clip-rule="evenodd" d="M177.906 100.762V133.411C177.906 136.074 180.088 137.596 182.828 137.596C191.757 137.596 204.619 138.865 210.707 134.73C215.299 131.609 217.049 124.912 213.802 119.534C212.635 117.632 211.57 117.124 210.53 115.577C212.661 112.406 215.071 108.905 212.661 103.197C210.885 98.9861 206.369 96.221 201.423 96.221H182.447C179.505 96.221 177.881 97.8445 177.881 100.787" fill="#E53012"/>
<path fill-rule="evenodd" clip-rule="evenodd" d="M129.707 100.762V133.411C129.707 136.074 131.889 137.596 134.629 137.596H164.614C167.835 137.596 169.535 135.465 169.535 132.294V102.69C169.535 96.1195 163.396 93.811 159.743 99.3412C158.551 101.117 157.511 102.538 156.318 104.288C155.126 106.038 154.213 107.56 152.944 109.26C151.98 110.554 150.433 113.344 149.418 114.08L139.474 99.7471C134.705 92.4919 129.682 98.1489 129.682 100.813" fill="#E53012"/>
<path fill-rule="evenodd" clip-rule="evenodd" d="M222.301 114.055V132.649C222.301 139.093 229.733 137.571 237.09 137.571C237.09 144.116 235.923 149.342 240.134 149.342C244.345 149.342 242.798 144.598 242.798 137.571C250.637 137.571 257.587 139.042 257.587 133.005V110.985C257.587 106.317 255.989 101.751 253.503 99.4934C247.897 94.3691 232.651 93.1007 225.776 100.432C223.087 103.324 222.275 108.499 222.275 114.004M237.471 115.196C237.471 113.674 238.308 112.533 239.754 112.533C242.011 112.533 242.798 114.055 242.798 116.338V137.216H237.496V115.196H237.471Z" fill="#E53012"/>
<path fill-rule="evenodd" clip-rule="evenodd" d="M154.745 45.7386V64.3333C154.745 70.8529 161.011 69.2547 169.535 69.2547V77.9813C169.535 82.0149 175.217 82.573 175.217 78.3619V69.2547C181.433 69.2547 190.007 70.65 190.007 65.4495V42.669C190.007 22.7298 164.69 25.1651 158.601 31.7608C155.608 35.0079 154.72 39.5995 154.72 45.7132M169.916 46.4996C169.916 45.4342 171.488 44.2165 172.579 44.2165C174.786 44.2165 175.243 46.4996 175.243 48.7827V68.8996H169.941V46.4996H169.916Z" fill="#E53012"/>
<path fill-rule="evenodd" clip-rule="evenodd" d="M86.0488 109.869V133.791C86.0488 138.941 95.2067 137.596 100.838 137.596C100.838 147.109 99.6968 149.367 104.263 149.367C108.829 149.367 106.546 141.097 106.546 137.596C112.584 137.596 120.981 138.966 120.981 133.791V109.514C120.981 100.736 114.106 95.4599 105.811 95.4599C97.5152 95.4599 94.6232 95.5106 90.539 99.1636C88.1544 101.269 86.0742 105.48 86.0742 109.894M100.864 115.577C100.864 113.75 102.056 112.533 103.908 112.533C105.76 112.533 106.191 113.902 106.191 114.816V137.216H100.889V115.577H100.864Z" fill="#E53012"/>
<path fill-rule="evenodd" clip-rule="evenodd" d="M108.829 33.5873V64.3334C108.829 66.9716 110.428 69.2548 113.015 69.2548H142.239C144.446 69.2548 146.425 67.3014 146.425 65.069V52.5372C146.425 46.8548 136.607 48.3515 129.733 48.3515V32.8009C129.733 26.2306 122.934 27.8795 113.801 27.8795C104.669 27.8795 108.88 30.0865 108.88 33.5619" fill="#E53012"/>
<path fill-rule="evenodd" clip-rule="evenodd" d="M75.0391 166.414C77.8043 166.414 81.1782 166.161 81.6602 161.67C82.3451 155.405 72.6292 154.441 71.0564 160.935C70.3968 163.624 72.3755 166.389 75.0391 166.389M76.5612 163.776C72.9843 163.776 73.8722 159.945 76.9417 159.21C79.5039 161.442 77.8804 163.776 76.5612 163.776Z" fill="#E53012"/>
<path fill-rule="evenodd" clip-rule="evenodd" d="M160.073 161.493C160.073 165.856 162.077 166.414 166.136 166.414C170.195 166.414 167.658 165.679 169.18 165.273L167.582 163.446C164.994 163.878 163.929 164.309 163.472 162.609C166.998 162.609 170.296 163.294 170.296 161.468C170.296 159.641 169.916 158.779 169.205 157.992C166.389 154.897 160.047 157.13 160.047 161.468M165.375 159.21H165.755C166.897 159.21 166.795 159.666 166.897 160.732H163.472C163.903 160.072 164.309 159.21 165.375 159.21Z" fill="#E53012"/>
<path fill-rule="evenodd" clip-rule="evenodd" d="M218.495 161.112C218.495 164.461 219.053 166.414 223.797 166.414C228.541 166.414 226.157 165.983 227.222 165.273C226.841 163.877 226.816 164.486 226.08 163.37C223.239 163.598 222.427 164.537 221.895 162.609H228.338C228.566 159.92 228.693 156.546 223.417 156.546C218.14 156.546 218.495 158.829 218.495 161.112ZM224.203 159.21C225.345 159.21 225.243 159.666 225.345 160.732H221.92C222.478 159.666 222.529 159.21 224.203 159.21Z" fill="#E53012"/>
<path fill-rule="evenodd" clip-rule="evenodd" d="M46.5762 163.015V164.157C44.2931 164.157 43.735 163.522 42.3905 162.634C41.8324 163.446 41.5279 163.751 41.2489 164.918C47.7431 169.256 52.9182 163.497 48.2251 160.986C45.1048 159.311 46.2971 160.554 45.8151 159.235C47.4133 158.499 47.9461 159.819 50.0009 159.996C50.4829 158.22 50.6097 159.666 50.7619 157.713C48.8086 157.256 48.9862 156.572 46.1957 156.572C43.4052 156.572 39.9298 161.468 46.5762 163.015Z" fill="#E53012"/>
<path fill-rule="evenodd" clip-rule="evenodd" d="M132.345 166.414H135.77C137.039 164.004 140.692 158.22 141.072 156.546H138.028C136.709 158.525 135.567 161.544 134.603 162.609C134.603 160.986 134.375 160.478 134.273 159.134C134.07 156.318 134.781 156.521 130.798 156.521C130.798 160.072 132.041 163.116 132.32 166.389" fill="#E53012"/>
<path fill-rule="evenodd" clip-rule="evenodd" d="M250.002 159.59C250.002 161.594 251.347 162.432 253.808 163.015V164.157C251.524 164.157 250.966 163.522 249.622 162.634C249.14 163.548 248.734 163.928 248.48 164.918C255.025 169.306 260.175 163.497 255.456 160.986C252.336 159.311 253.528 160.554 253.046 159.235C254.492 158.576 255.203 159.616 256.852 159.996C257.663 159.413 257.816 158.931 258.374 158.094C255.33 156.47 250.028 155.227 250.028 159.616" fill="#E53012"/>
<path fill-rule="evenodd" clip-rule="evenodd" d="M191.174 159.59H192.315C191.986 163.624 189.373 167.886 197.237 166.034C196.983 164.918 196.856 164.867 196.856 163.37C195.842 163.852 196.45 163.725 194.954 163.751C194.979 162.33 195.436 160.808 195.715 159.565C198.353 159.565 198.378 159.819 198.378 157.282H196.095C196.349 156.166 196.476 156.115 196.476 154.618C191.833 154.618 193.66 154.567 193.178 155.506C192.366 157.104 193.812 154.212 193 156.09C192.696 156.825 193 156.394 192.62 156.851C191.935 157.688 191.149 156.749 191.149 159.54" fill="#E53012"/>
<path fill-rule="evenodd" clip-rule="evenodd" d="M102.005 166.414H105.43C105.836 161.544 106.445 159.666 109.996 159.59L110.453 156.572C108.626 156.597 108.398 157.003 107.358 157.688V156.546H103.933L102.031 166.414H102.005Z" fill="#E53012"/>
</g>
</g>
<defs>
<clipPath id="clip0_24_2">
<rect width="300.13" height="193" fill="white"/>
</clipPath>
<clipPath id="clip1_24_2">
<rect width="300.13" height="193" fill="white"/>
</clipPath>
</defs>
</svg>
