<svg width="240" height="154" viewBox="0 0 240 154" fill="none" xmlns="http://www.w3.org/2000/svg">
<g clip-path="url(#clip0_1_9)">
<g clip-path="url(#clip1_1_9)">
<path fill-rule="evenodd" clip-rule="evenodd" d="M33.3676 80.5418V105.026C33.3676 107.813 34.5392 109.551 37.2866 109.551C43.6297 109.551 55.1241 110.5 59.3664 107.45C65.4469 103.066 63.8106 94.6826 59.3664 92.3191C61.7501 88.7637 61.7905 88.7031 61.7905 84.7638C61.7905 80.8246 57.0837 76.6026 51.8112 76.6026H36.7007C34.5796 76.6026 33.3676 78.3399 33.3676 80.5216" fill="#E53012"/>
<path fill-rule="evenodd" clip-rule="evenodd" d="M142.171 80.2388V106.238C142.171 108.359 143.908 109.571 146.09 109.571C153.201 109.571 163.442 110.581 168.291 107.288C171.947 104.803 173.341 99.4703 170.755 95.1876C169.826 93.6725 168.978 93.2685 168.149 92.0362C169.846 89.5111 171.765 86.7234 169.846 82.1781C168.432 78.8247 164.836 76.6228 160.897 76.6228H145.787C143.443 76.6228 142.151 77.9157 142.151 80.259" fill="#E53012"/>
<path fill-rule="evenodd" clip-rule="evenodd" d="M103.789 80.2388V106.238C103.789 108.359 105.526 109.571 107.708 109.571H131.585C134.151 109.571 135.504 107.874 135.504 105.349V81.7741C135.504 76.542 130.616 74.7037 127.707 79.1075C126.757 80.5216 125.929 81.6529 124.98 83.0468C124.03 84.4406 123.303 85.6527 122.293 87.0062C121.525 88.0364 120.293 90.2585 119.485 90.8444L111.566 79.4308C107.768 73.6532 103.768 78.1581 103.768 80.2792" fill="#E53012"/>
<path fill-rule="evenodd" clip-rule="evenodd" d="M177.523 90.8242V105.632C177.523 110.763 183.442 109.551 189.3 109.551C189.3 114.762 188.371 118.924 191.724 118.924C195.077 118.924 193.845 115.146 193.845 109.551C200.087 109.551 205.622 110.722 205.622 105.914V88.3798C205.622 84.6628 204.35 81.0266 202.37 79.2287C197.906 75.1481 185.765 74.138 180.29 79.9762C178.149 82.2791 177.502 86.4001 177.502 90.7838M189.603 91.7332C189.603 90.5211 190.27 89.6121 191.421 89.6121C193.219 89.6121 193.845 90.8242 193.845 92.6423V109.268H189.623V91.7332H189.603Z" fill="#E53012"/>
<path fill-rule="evenodd" clip-rule="evenodd" d="M123.727 36.4226V51.23C123.727 56.4217 128.717 55.149 135.504 55.149V62.0982C135.504 65.3102 140.029 65.7546 140.029 62.4012V55.149C144.979 55.149 151.807 56.2601 151.807 52.1189V33.9783C151.807 18.1002 131.646 20.0395 126.798 25.2918C124.414 27.8775 123.707 31.5339 123.707 36.4024M135.807 37.0286C135.807 36.1802 137.06 35.2105 137.928 35.2105C139.686 35.2105 140.05 37.0286 140.05 38.8467V54.8662H135.828V37.0286H135.807Z" fill="#E53012"/>
<path fill-rule="evenodd" clip-rule="evenodd" d="M69.0225 87.491V106.541C69.0225 110.641 76.3151 109.571 80.7998 109.571C80.7998 117.146 79.8907 118.944 83.5269 118.944C87.1631 118.944 85.345 112.359 85.345 109.571C90.1529 109.571 96.8394 110.662 96.8394 106.541V87.2082C96.8394 80.2186 91.3649 76.0168 84.7592 76.0168C78.1534 76.0168 75.8505 76.0572 72.5981 78.9661C70.6992 80.6428 69.0427 83.9962 69.0427 87.5112M80.82 92.0362C80.82 90.5818 81.7694 89.6121 83.2441 89.6121C84.7188 89.6121 85.0622 90.703 85.0622 91.4302V109.268H80.8402V92.0362H80.82Z" fill="#E53012"/>
<path fill-rule="evenodd" clip-rule="evenodd" d="M87.1631 26.7463V51.23C87.1631 53.3309 88.4358 55.149 90.4963 55.149H113.768C115.525 55.149 117.101 53.5935 117.101 51.8158V41.8365C117.101 37.3114 109.283 38.5033 103.809 38.5033V26.12C103.809 20.8879 98.3949 22.201 91.1225 22.201C83.8501 22.201 87.2035 23.9585 87.2035 26.7261" fill="#E53012"/>
<path fill-rule="evenodd" clip-rule="evenodd" d="M60.2553 132.519C62.4572 132.519 65.1439 132.317 65.5277 128.742C66.0732 123.752 58.3362 122.984 57.0837 128.156C56.5585 130.297 58.1341 132.499 60.2553 132.499M61.4673 130.418C58.619 130.418 59.326 127.368 61.7703 126.782C63.8106 128.56 62.5178 130.418 61.4673 130.418Z" fill="#E53012"/>
<path fill-rule="evenodd" clip-rule="evenodd" d="M127.969 128.6C127.969 132.075 129.565 132.519 132.797 132.519C136.03 132.519 134.009 131.933 135.222 131.61L133.949 130.156C131.888 130.499 131.04 130.843 130.676 129.489C133.484 129.489 136.11 130.035 136.11 128.58C136.11 127.126 135.807 126.439 135.242 125.812C132.999 123.348 127.949 125.126 127.949 128.58M132.191 126.782H132.494C133.403 126.782 133.323 127.146 133.403 127.994H130.676C131.02 127.469 131.343 126.782 132.191 126.782Z" fill="#E53012"/>
<path fill-rule="evenodd" clip-rule="evenodd" d="M174.492 128.297C174.492 130.964 174.937 132.519 178.715 132.519C182.492 132.519 180.593 132.176 181.442 131.61C181.139 130.499 181.118 130.984 180.533 130.095C178.27 130.277 177.624 131.024 177.199 129.489H182.331C182.512 127.348 182.613 124.661 178.411 124.661C174.21 124.661 174.492 126.479 174.492 128.297ZM179.038 126.782C179.947 126.782 179.866 127.146 179.947 127.994H177.22C177.664 127.146 177.704 126.782 179.038 126.782Z" fill="#E53012"/>
<path fill-rule="evenodd" clip-rule="evenodd" d="M37.5896 129.812V130.721C35.7715 130.721 35.3271 130.216 34.2564 129.509C33.812 130.156 33.5696 130.398 33.3474 131.327C38.5188 134.782 42.6399 130.196 38.9027 128.196C36.4179 126.863 37.3674 127.853 36.9835 126.802C38.2562 126.216 38.6804 127.267 40.3167 127.408C40.7006 125.994 40.8016 127.146 40.9228 125.59C39.3673 125.227 39.5087 124.681 37.2866 124.681C35.0644 124.681 32.2969 128.58 37.5896 129.812Z" fill="#E53012"/>
<path fill-rule="evenodd" clip-rule="evenodd" d="M105.89 132.519H108.617C109.627 130.6 112.536 125.994 112.839 124.661H110.415C109.364 126.237 108.455 128.641 107.687 129.489C107.687 128.196 107.506 127.792 107.425 126.722C107.263 124.479 107.829 124.641 104.657 124.641C104.657 127.469 105.647 129.893 105.869 132.499" fill="#E53012"/>
<path fill-rule="evenodd" clip-rule="evenodd" d="M199.582 127.085C199.582 128.681 200.653 129.348 202.612 129.812V130.721C200.794 130.721 200.35 130.216 199.279 129.509C198.895 130.237 198.572 130.54 198.37 131.327C203.582 134.822 207.683 130.196 203.925 128.196C201.441 126.863 202.39 127.853 202.006 126.802C203.158 126.277 203.723 127.105 205.037 127.408C205.683 126.944 205.804 126.56 206.249 125.893C203.824 124.6 199.602 123.611 199.602 127.105" fill="#E53012"/>
<path fill-rule="evenodd" clip-rule="evenodd" d="M152.736 127.085H153.645C153.382 130.297 151.302 133.691 157.564 132.216C157.362 131.327 157.261 131.287 157.261 130.095C156.453 130.479 156.938 130.378 155.746 130.398C155.766 129.267 156.13 128.055 156.352 127.065C158.453 127.065 158.473 127.267 158.473 125.247H156.655C156.857 124.358 156.958 124.318 156.958 123.126C153.261 123.126 154.716 123.085 154.332 123.833C153.685 125.105 154.837 122.803 154.19 124.297C153.948 124.883 154.19 124.54 153.887 124.903C153.342 125.57 152.716 124.823 152.716 127.045" fill="#E53012"/>
<path fill-rule="evenodd" clip-rule="evenodd" d="M81.729 132.519H84.4562C84.7794 128.641 85.2642 127.146 88.0924 127.085L88.456 124.681C87.0015 124.701 86.8197 125.025 85.9914 125.57V124.661H83.2643L81.7492 132.519H81.729Z" fill="#E53012"/>
</g>
</g>
<defs>
<clipPath id="clip0_1_9">
<rect width="239" height="153.69" fill="white" transform="translate(0.5)"/>
</clipPath>
<clipPath id="clip1_1_9">
<rect width="239" height="153.69" fill="white" transform="translate(0.5)"/>
</clipPath>
</defs>
</svg>
